%TF.GenerationSoftware,KiCad,Pcbnew,9.0.4*%
%TF.CreationDate,2025-10-02T17:08:24-05:00*%
%TF.ProjectId,firstExcercise,66697273-7445-4786-9365-72636973652e,rev?*%
%TF.SameCoordinates,Original*%
%TF.FileFunction,Legend,Bot*%
%TF.FilePolarity,Positive*%
%FSLAX46Y46*%
G04 Gerber Fmt 4.6, Leading zero omitted, Abs format (unit mm)*
G04 Created by KiCad (PCBNEW 9.0.4) date 2025-10-02 17:08:24*
%MOMM*%
%LPD*%
G01*
G04 APERTURE LIST*
%ADD10C,0.010000*%
G04 APERTURE END LIST*
D10*
%TO.C,REF\u002A\u002A*%
X129861023Y-81649949D02*
X129886744Y-81665647D01*
X129913395Y-81687227D01*
X129913395Y-82334684D01*
X129886744Y-82356264D01*
X129855384Y-82373739D01*
X129819583Y-82374575D01*
X129788145Y-82354082D01*
X129784269Y-82349416D01*
X129778803Y-82339949D01*
X129774596Y-82326267D01*
X129771484Y-82305748D01*
X129769304Y-82275768D01*
X129767893Y-82233704D01*
X129767088Y-82176932D01*
X129766724Y-82102830D01*
X129766639Y-82008773D01*
X129766639Y-81687227D01*
X129793290Y-81665647D01*
X129817003Y-81650877D01*
X129840017Y-81644067D01*
X129861023Y-81649949D01*
G36*
X129861023Y-81649949D02*
G01*
X129886744Y-81665647D01*
X129913395Y-81687227D01*
X129913395Y-82334684D01*
X129886744Y-82356264D01*
X129855384Y-82373739D01*
X129819583Y-82374575D01*
X129788145Y-82354082D01*
X129784269Y-82349416D01*
X129778803Y-82339949D01*
X129774596Y-82326267D01*
X129771484Y-82305748D01*
X129769304Y-82275768D01*
X129767893Y-82233704D01*
X129767088Y-82176932D01*
X129766724Y-82102830D01*
X129766639Y-82008773D01*
X129766639Y-81687227D01*
X129793290Y-81665647D01*
X129817003Y-81650877D01*
X129840017Y-81644067D01*
X129861023Y-81649949D01*
G37*
X136991754Y-81648463D02*
X137025908Y-81671776D01*
X137053617Y-81699485D01*
X137053617Y-82012537D01*
X137053576Y-82096567D01*
X137053318Y-82170789D01*
X137052647Y-82227541D01*
X137051369Y-82269512D01*
X137049290Y-82299389D01*
X137046216Y-82319861D01*
X137041951Y-82333614D01*
X137036301Y-82343337D01*
X137029072Y-82351717D01*
X136997608Y-82373181D01*
X136962443Y-82374947D01*
X136929439Y-82355267D01*
X136924133Y-82349398D01*
X136918683Y-82340314D01*
X136914517Y-82326973D01*
X136911463Y-82306757D01*
X136909349Y-82277049D01*
X136908003Y-82235232D01*
X136907255Y-82178689D01*
X136906931Y-82104802D01*
X136906862Y-82010956D01*
X136906901Y-81935294D01*
X136907156Y-81857385D01*
X136907800Y-81797375D01*
X136909004Y-81752648D01*
X136910941Y-81720585D01*
X136913781Y-81698571D01*
X136917696Y-81683987D01*
X136922859Y-81674218D01*
X136929439Y-81666645D01*
X136958623Y-81647623D01*
X136991754Y-81648463D01*
G36*
X136991754Y-81648463D02*
G01*
X137025908Y-81671776D01*
X137053617Y-81699485D01*
X137053617Y-82012537D01*
X137053576Y-82096567D01*
X137053318Y-82170789D01*
X137052647Y-82227541D01*
X137051369Y-82269512D01*
X137049290Y-82299389D01*
X137046216Y-82319861D01*
X137041951Y-82333614D01*
X137036301Y-82343337D01*
X137029072Y-82351717D01*
X136997608Y-82373181D01*
X136962443Y-82374947D01*
X136929439Y-82355267D01*
X136924133Y-82349398D01*
X136918683Y-82340314D01*
X136914517Y-82326973D01*
X136911463Y-82306757D01*
X136909349Y-82277049D01*
X136908003Y-82235232D01*
X136907255Y-82178689D01*
X136906931Y-82104802D01*
X136906862Y-82010956D01*
X136906901Y-81935294D01*
X136907156Y-81857385D01*
X136907800Y-81797375D01*
X136909004Y-81752648D01*
X136910941Y-81720585D01*
X136913781Y-81698571D01*
X136917696Y-81683987D01*
X136922859Y-81674218D01*
X136929439Y-81666645D01*
X136958623Y-81647623D01*
X136991754Y-81648463D01*
G37*
X136460179Y-76407850D02*
X136542930Y-76435053D01*
X136618023Y-76480484D01*
X136689915Y-76546302D01*
X136728463Y-76590567D01*
X136767873Y-76648961D01*
X136793063Y-76709586D01*
X136806478Y-76778865D01*
X136810565Y-76863222D01*
X136810286Y-76909307D01*
X136808077Y-76950450D01*
X136802511Y-76982582D01*
X136792203Y-77013122D01*
X136775765Y-77049489D01*
X136761817Y-77076728D01*
X136703282Y-77162429D01*
X136631236Y-77231617D01*
X136547564Y-77282741D01*
X136454148Y-77314250D01*
X136421051Y-77321225D01*
X136380577Y-77328094D01*
X136347616Y-77329919D01*
X136313315Y-77326947D01*
X136268817Y-77319426D01*
X136217551Y-77307002D01*
X136127051Y-77269112D01*
X136047962Y-77214836D01*
X135982145Y-77146770D01*
X135931457Y-77067511D01*
X135897757Y-76979654D01*
X135882903Y-76885795D01*
X135888753Y-76788530D01*
X135915016Y-76692220D01*
X135960035Y-76603494D01*
X136020990Y-76528419D01*
X136095801Y-76468641D01*
X136182385Y-76425809D01*
X136278660Y-76401571D01*
X136382545Y-76397576D01*
X136460179Y-76407850D01*
G36*
X136460179Y-76407850D02*
G01*
X136542930Y-76435053D01*
X136618023Y-76480484D01*
X136689915Y-76546302D01*
X136728463Y-76590567D01*
X136767873Y-76648961D01*
X136793063Y-76709586D01*
X136806478Y-76778865D01*
X136810565Y-76863222D01*
X136810286Y-76909307D01*
X136808077Y-76950450D01*
X136802511Y-76982582D01*
X136792203Y-77013122D01*
X136775765Y-77049489D01*
X136761817Y-77076728D01*
X136703282Y-77162429D01*
X136631236Y-77231617D01*
X136547564Y-77282741D01*
X136454148Y-77314250D01*
X136421051Y-77321225D01*
X136380577Y-77328094D01*
X136347616Y-77329919D01*
X136313315Y-77326947D01*
X136268817Y-77319426D01*
X136217551Y-77307002D01*
X136127051Y-77269112D01*
X136047962Y-77214836D01*
X135982145Y-77146770D01*
X135931457Y-77067511D01*
X135897757Y-76979654D01*
X135882903Y-76885795D01*
X135888753Y-76788530D01*
X135915016Y-76692220D01*
X135960035Y-76603494D01*
X136020990Y-76528419D01*
X136095801Y-76468641D01*
X136182385Y-76425809D01*
X136278660Y-76401571D01*
X136382545Y-76397576D01*
X136460179Y-76407850D01*
G37*
X129161384Y-81644068D02*
X129255507Y-81644158D01*
X129330022Y-81644498D01*
X129387428Y-81645239D01*
X129430228Y-81646535D01*
X129460921Y-81648537D01*
X129482008Y-81651396D01*
X129495990Y-81655266D01*
X129505367Y-81660298D01*
X129512639Y-81666645D01*
X129531445Y-81699362D01*
X129532892Y-81736939D01*
X129516534Y-81770178D01*
X129515174Y-81771631D01*
X129503971Y-81779992D01*
X129486869Y-81785547D01*
X129459699Y-81788840D01*
X129418295Y-81790418D01*
X129358490Y-81790822D01*
X129219128Y-81790822D01*
X129219128Y-82054589D01*
X129219053Y-82130417D01*
X129218645Y-82197083D01*
X129217663Y-82246867D01*
X129215867Y-82282784D01*
X129213016Y-82307850D01*
X129208870Y-82325081D01*
X129203188Y-82337492D01*
X129195731Y-82348100D01*
X129193441Y-82350906D01*
X129162263Y-82373548D01*
X129127883Y-82375112D01*
X129094951Y-82355267D01*
X129087972Y-82347191D01*
X129082500Y-82336593D01*
X129078480Y-82320749D01*
X129075689Y-82296773D01*
X129073905Y-82261774D01*
X129072906Y-82212864D01*
X129072469Y-82147154D01*
X129072373Y-82061756D01*
X129072373Y-81790822D01*
X128926437Y-81790822D01*
X128915337Y-81790821D01*
X128858819Y-81790596D01*
X128819975Y-81789457D01*
X128794582Y-81786657D01*
X128778421Y-81781450D01*
X128767269Y-81773089D01*
X128756906Y-81760826D01*
X128741058Y-81730138D01*
X128744160Y-81696358D01*
X128769804Y-81663822D01*
X128774746Y-81660105D01*
X128784955Y-81655269D01*
X128800381Y-81651506D01*
X128823503Y-81648683D01*
X128856800Y-81646670D01*
X128902754Y-81645333D01*
X128963845Y-81644542D01*
X129042552Y-81644163D01*
X129141357Y-81644067D01*
X129161384Y-81644068D01*
G36*
X129161384Y-81644068D02*
G01*
X129255507Y-81644158D01*
X129330022Y-81644498D01*
X129387428Y-81645239D01*
X129430228Y-81646535D01*
X129460921Y-81648537D01*
X129482008Y-81651396D01*
X129495990Y-81655266D01*
X129505367Y-81660298D01*
X129512639Y-81666645D01*
X129531445Y-81699362D01*
X129532892Y-81736939D01*
X129516534Y-81770178D01*
X129515174Y-81771631D01*
X129503971Y-81779992D01*
X129486869Y-81785547D01*
X129459699Y-81788840D01*
X129418295Y-81790418D01*
X129358490Y-81790822D01*
X129219128Y-81790822D01*
X129219128Y-82054589D01*
X129219053Y-82130417D01*
X129218645Y-82197083D01*
X129217663Y-82246867D01*
X129215867Y-82282784D01*
X129213016Y-82307850D01*
X129208870Y-82325081D01*
X129203188Y-82337492D01*
X129195731Y-82348100D01*
X129193441Y-82350906D01*
X129162263Y-82373548D01*
X129127883Y-82375112D01*
X129094951Y-82355267D01*
X129087972Y-82347191D01*
X129082500Y-82336593D01*
X129078480Y-82320749D01*
X129075689Y-82296773D01*
X129073905Y-82261774D01*
X129072906Y-82212864D01*
X129072469Y-82147154D01*
X129072373Y-82061756D01*
X129072373Y-81790822D01*
X128926437Y-81790822D01*
X128915337Y-81790821D01*
X128858819Y-81790596D01*
X128819975Y-81789457D01*
X128794582Y-81786657D01*
X128778421Y-81781450D01*
X128767269Y-81773089D01*
X128756906Y-81760826D01*
X128741058Y-81730138D01*
X128744160Y-81696358D01*
X128769804Y-81663822D01*
X128774746Y-81660105D01*
X128784955Y-81655269D01*
X128800381Y-81651506D01*
X128823503Y-81648683D01*
X128856800Y-81646670D01*
X128902754Y-81645333D01*
X128963845Y-81644542D01*
X129042552Y-81644163D01*
X129141357Y-81644067D01*
X129161384Y-81644068D01*
G37*
X128485351Y-81666645D02*
X128490983Y-81672835D01*
X128496073Y-81681041D01*
X128500160Y-81692817D01*
X128503338Y-81710276D01*
X128505704Y-81735530D01*
X128507355Y-81770690D01*
X128508386Y-81817869D01*
X128508894Y-81879177D01*
X128508976Y-81956727D01*
X128508726Y-82052631D01*
X128508242Y-82169000D01*
X128508174Y-82183175D01*
X128507588Y-82244937D01*
X128506265Y-82288620D01*
X128503720Y-82318001D01*
X128499465Y-82336855D01*
X128493013Y-82348959D01*
X128483879Y-82358089D01*
X128450421Y-82375506D01*
X128415473Y-82372604D01*
X128384570Y-82348100D01*
X128375561Y-82334897D01*
X128368109Y-82316361D01*
X128363741Y-82290333D01*
X128361686Y-82251787D01*
X128361173Y-82195700D01*
X128361173Y-82073045D01*
X127864462Y-82073045D01*
X127864462Y-82207871D01*
X127864389Y-82243662D01*
X127863626Y-82289992D01*
X127861450Y-82320526D01*
X127857153Y-82339557D01*
X127850029Y-82351374D01*
X127839372Y-82360271D01*
X127807121Y-82375341D01*
X127771834Y-82372673D01*
X127741103Y-82348100D01*
X127736448Y-82341845D01*
X127730512Y-82331321D01*
X127725981Y-82317391D01*
X127722665Y-82297317D01*
X127720376Y-82268360D01*
X127718925Y-82227780D01*
X127718122Y-82172840D01*
X127717779Y-82100799D01*
X127717706Y-82008920D01*
X127717706Y-81699485D01*
X127745415Y-81671776D01*
X127776794Y-81649533D01*
X127810023Y-81646844D01*
X127841884Y-81666645D01*
X127850170Y-81676415D01*
X127857582Y-81692307D01*
X127861919Y-81716275D01*
X127863955Y-81753148D01*
X127864462Y-81807756D01*
X127864462Y-81926289D01*
X128361173Y-81926289D01*
X128361173Y-81810776D01*
X128361611Y-81759078D01*
X128363575Y-81724554D01*
X128368091Y-81701978D01*
X128376184Y-81686126D01*
X128388882Y-81671776D01*
X128420260Y-81649533D01*
X128453489Y-81646844D01*
X128485351Y-81666645D01*
G36*
X128485351Y-81666645D02*
G01*
X128490983Y-81672835D01*
X128496073Y-81681041D01*
X128500160Y-81692817D01*
X128503338Y-81710276D01*
X128505704Y-81735530D01*
X128507355Y-81770690D01*
X128508386Y-81817869D01*
X128508894Y-81879177D01*
X128508976Y-81956727D01*
X128508726Y-82052631D01*
X128508242Y-82169000D01*
X128508174Y-82183175D01*
X128507588Y-82244937D01*
X128506265Y-82288620D01*
X128503720Y-82318001D01*
X128499465Y-82336855D01*
X128493013Y-82348959D01*
X128483879Y-82358089D01*
X128450421Y-82375506D01*
X128415473Y-82372604D01*
X128384570Y-82348100D01*
X128375561Y-82334897D01*
X128368109Y-82316361D01*
X128363741Y-82290333D01*
X128361686Y-82251787D01*
X128361173Y-82195700D01*
X128361173Y-82073045D01*
X127864462Y-82073045D01*
X127864462Y-82207871D01*
X127864389Y-82243662D01*
X127863626Y-82289992D01*
X127861450Y-82320526D01*
X127857153Y-82339557D01*
X127850029Y-82351374D01*
X127839372Y-82360271D01*
X127807121Y-82375341D01*
X127771834Y-82372673D01*
X127741103Y-82348100D01*
X127736448Y-82341845D01*
X127730512Y-82331321D01*
X127725981Y-82317391D01*
X127722665Y-82297317D01*
X127720376Y-82268360D01*
X127718925Y-82227780D01*
X127718122Y-82172840D01*
X127717779Y-82100799D01*
X127717706Y-82008920D01*
X127717706Y-81699485D01*
X127745415Y-81671776D01*
X127776794Y-81649533D01*
X127810023Y-81646844D01*
X127841884Y-81666645D01*
X127850170Y-81676415D01*
X127857582Y-81692307D01*
X127861919Y-81716275D01*
X127863955Y-81753148D01*
X127864462Y-81807756D01*
X127864462Y-81926289D01*
X128361173Y-81926289D01*
X128361173Y-81810776D01*
X128361611Y-81759078D01*
X128363575Y-81724554D01*
X128368091Y-81701978D01*
X128376184Y-81686126D01*
X128388882Y-81671776D01*
X128420260Y-81649533D01*
X128453489Y-81646844D01*
X128485351Y-81666645D01*
G37*
X133190750Y-82255396D02*
X133188780Y-82288175D01*
X133185852Y-82311095D01*
X133181775Y-82326897D01*
X133176360Y-82338319D01*
X133169420Y-82348100D01*
X133146023Y-82377845D01*
X132980331Y-82377251D01*
X132945535Y-82376953D01*
X132847052Y-82373522D01*
X132766090Y-82365839D01*
X132698996Y-82353282D01*
X132642113Y-82335227D01*
X132591786Y-82311052D01*
X132588427Y-82309135D01*
X132530615Y-82272417D01*
X132488261Y-82235451D01*
X132455445Y-82191966D01*
X132426245Y-82135689D01*
X132421963Y-82126073D01*
X132399386Y-82062887D01*
X132393651Y-82017333D01*
X132542896Y-82017333D01*
X132548509Y-82042061D01*
X132554235Y-82057939D01*
X132587165Y-82117847D01*
X132634503Y-82163600D01*
X132698269Y-82196736D01*
X132780478Y-82218790D01*
X132783272Y-82219292D01*
X132829557Y-82225255D01*
X132885953Y-82229483D01*
X132940891Y-82231089D01*
X133034773Y-82231089D01*
X133034773Y-81790822D01*
X132947284Y-81791270D01*
X132880364Y-81793746D01*
X132787966Y-81804998D01*
X132708651Y-81824537D01*
X132646677Y-81851511D01*
X132615737Y-81872240D01*
X132587617Y-81902006D01*
X132564277Y-81944434D01*
X132557150Y-81960400D01*
X132545326Y-81992902D01*
X132542896Y-82017333D01*
X132393651Y-82017333D01*
X132392414Y-82007509D01*
X132401016Y-81952483D01*
X132425158Y-81890351D01*
X132425954Y-81888658D01*
X132466405Y-81819236D01*
X132517090Y-81762638D01*
X132579815Y-81718070D01*
X132656391Y-81684741D01*
X132748626Y-81661861D01*
X132858329Y-81648636D01*
X132987308Y-81644275D01*
X132990880Y-81644270D01*
X133050900Y-81644410D01*
X133092831Y-81645446D01*
X133120945Y-81648040D01*
X133139514Y-81652853D01*
X133152811Y-81660544D01*
X133165108Y-81671776D01*
X133192817Y-81699485D01*
X133192817Y-82008920D01*
X133192792Y-82070526D01*
X133192567Y-82149311D01*
X133191949Y-82210021D01*
X133191392Y-82231089D01*
X133190750Y-82255396D01*
G36*
X133190750Y-82255396D02*
G01*
X133188780Y-82288175D01*
X133185852Y-82311095D01*
X133181775Y-82326897D01*
X133176360Y-82338319D01*
X133169420Y-82348100D01*
X133146023Y-82377845D01*
X132980331Y-82377251D01*
X132945535Y-82376953D01*
X132847052Y-82373522D01*
X132766090Y-82365839D01*
X132698996Y-82353282D01*
X132642113Y-82335227D01*
X132591786Y-82311052D01*
X132588427Y-82309135D01*
X132530615Y-82272417D01*
X132488261Y-82235451D01*
X132455445Y-82191966D01*
X132426245Y-82135689D01*
X132421963Y-82126073D01*
X132399386Y-82062887D01*
X132393651Y-82017333D01*
X132542896Y-82017333D01*
X132548509Y-82042061D01*
X132554235Y-82057939D01*
X132587165Y-82117847D01*
X132634503Y-82163600D01*
X132698269Y-82196736D01*
X132780478Y-82218790D01*
X132783272Y-82219292D01*
X132829557Y-82225255D01*
X132885953Y-82229483D01*
X132940891Y-82231089D01*
X133034773Y-82231089D01*
X133034773Y-81790822D01*
X132947284Y-81791270D01*
X132880364Y-81793746D01*
X132787966Y-81804998D01*
X132708651Y-81824537D01*
X132646677Y-81851511D01*
X132615737Y-81872240D01*
X132587617Y-81902006D01*
X132564277Y-81944434D01*
X132557150Y-81960400D01*
X132545326Y-81992902D01*
X132542896Y-82017333D01*
X132393651Y-82017333D01*
X132392414Y-82007509D01*
X132401016Y-81952483D01*
X132425158Y-81890351D01*
X132425954Y-81888658D01*
X132466405Y-81819236D01*
X132517090Y-81762638D01*
X132579815Y-81718070D01*
X132656391Y-81684741D01*
X132748626Y-81661861D01*
X132858329Y-81648636D01*
X132987308Y-81644275D01*
X132990880Y-81644270D01*
X133050900Y-81644410D01*
X133092831Y-81645446D01*
X133120945Y-81648040D01*
X133139514Y-81652853D01*
X133152811Y-81660544D01*
X133165108Y-81671776D01*
X133192817Y-81699485D01*
X133192817Y-82008920D01*
X133192792Y-82070526D01*
X133192567Y-82149311D01*
X133191949Y-82210021D01*
X133191392Y-82231089D01*
X133190750Y-82255396D01*
G37*
X140282434Y-81829427D02*
X140282487Y-81910041D01*
X140282239Y-82010956D01*
X140282200Y-82086617D01*
X140281945Y-82164526D01*
X140281301Y-82224536D01*
X140280097Y-82269264D01*
X140278160Y-82301326D01*
X140275320Y-82323340D01*
X140271405Y-82337924D01*
X140266243Y-82347694D01*
X140259662Y-82355267D01*
X140252694Y-82361501D01*
X140239696Y-82368801D01*
X140220548Y-82373554D01*
X140191145Y-82376292D01*
X140147379Y-82377545D01*
X140085145Y-82377845D01*
X140036199Y-82377469D01*
X139929339Y-82373041D01*
X139840111Y-82362953D01*
X139765313Y-82346365D01*
X139701742Y-82322435D01*
X139646196Y-82290321D01*
X139595471Y-82249182D01*
X139589483Y-82243330D01*
X139552616Y-82194821D01*
X139521516Y-82134013D01*
X139500034Y-82069769D01*
X139494753Y-82031026D01*
X139641970Y-82031026D01*
X139660252Y-82081961D01*
X139689922Y-82127878D01*
X139736619Y-82170287D01*
X139798009Y-82200090D01*
X139877155Y-82219226D01*
X139878645Y-82219464D01*
X139927616Y-82225256D01*
X139986310Y-82229396D01*
X140042351Y-82231004D01*
X140135484Y-82231089D01*
X140135484Y-81790822D01*
X140059284Y-81790808D01*
X140056256Y-81790817D01*
X140005136Y-81792782D01*
X139945033Y-81797507D01*
X139888325Y-81804035D01*
X139838367Y-81813331D01*
X139763615Y-81839600D01*
X139706106Y-81878899D01*
X139664605Y-81931933D01*
X139643388Y-81983200D01*
X139641970Y-82031026D01*
X139494753Y-82031026D01*
X139492017Y-82010956D01*
X139493296Y-81989739D01*
X139505608Y-81932323D01*
X139528137Y-81872413D01*
X139557367Y-81818363D01*
X139589784Y-81778532D01*
X139609325Y-81761510D01*
X139664037Y-81722322D01*
X139724340Y-81692193D01*
X139793536Y-81670232D01*
X139874928Y-81655550D01*
X139971817Y-81647259D01*
X140087506Y-81644467D01*
X140126988Y-81644066D01*
X140172699Y-81643653D01*
X140208500Y-81645457D01*
X140235591Y-81651739D01*
X140255173Y-81664759D01*
X140268447Y-81686778D01*
X140276615Y-81720055D01*
X140280877Y-81766851D01*
X140281474Y-81790822D01*
X140282434Y-81829427D01*
G36*
X140282434Y-81829427D02*
G01*
X140282487Y-81910041D01*
X140282239Y-82010956D01*
X140282200Y-82086617D01*
X140281945Y-82164526D01*
X140281301Y-82224536D01*
X140280097Y-82269264D01*
X140278160Y-82301326D01*
X140275320Y-82323340D01*
X140271405Y-82337924D01*
X140266243Y-82347694D01*
X140259662Y-82355267D01*
X140252694Y-82361501D01*
X140239696Y-82368801D01*
X140220548Y-82373554D01*
X140191145Y-82376292D01*
X140147379Y-82377545D01*
X140085145Y-82377845D01*
X140036199Y-82377469D01*
X139929339Y-82373041D01*
X139840111Y-82362953D01*
X139765313Y-82346365D01*
X139701742Y-82322435D01*
X139646196Y-82290321D01*
X139595471Y-82249182D01*
X139589483Y-82243330D01*
X139552616Y-82194821D01*
X139521516Y-82134013D01*
X139500034Y-82069769D01*
X139494753Y-82031026D01*
X139641970Y-82031026D01*
X139660252Y-82081961D01*
X139689922Y-82127878D01*
X139736619Y-82170287D01*
X139798009Y-82200090D01*
X139877155Y-82219226D01*
X139878645Y-82219464D01*
X139927616Y-82225256D01*
X139986310Y-82229396D01*
X140042351Y-82231004D01*
X140135484Y-82231089D01*
X140135484Y-81790822D01*
X140059284Y-81790808D01*
X140056256Y-81790817D01*
X140005136Y-81792782D01*
X139945033Y-81797507D01*
X139888325Y-81804035D01*
X139838367Y-81813331D01*
X139763615Y-81839600D01*
X139706106Y-81878899D01*
X139664605Y-81931933D01*
X139643388Y-81983200D01*
X139641970Y-82031026D01*
X139494753Y-82031026D01*
X139492017Y-82010956D01*
X139493296Y-81989739D01*
X139505608Y-81932323D01*
X139528137Y-81872413D01*
X139557367Y-81818363D01*
X139589784Y-81778532D01*
X139609325Y-81761510D01*
X139664037Y-81722322D01*
X139724340Y-81692193D01*
X139793536Y-81670232D01*
X139874928Y-81655550D01*
X139971817Y-81647259D01*
X140087506Y-81644467D01*
X140126988Y-81644066D01*
X140172699Y-81643653D01*
X140208500Y-81645457D01*
X140235591Y-81651739D01*
X140255173Y-81664759D01*
X140268447Y-81686778D01*
X140276615Y-81720055D01*
X140280877Y-81766851D01*
X140281474Y-81790822D01*
X140282434Y-81829427D01*
G37*
X135337510Y-81642892D02*
X135348918Y-81649029D01*
X135359467Y-81659691D01*
X135370753Y-81673811D01*
X135375206Y-81679772D01*
X135381205Y-81690268D01*
X135385784Y-81704093D01*
X135389136Y-81723998D01*
X135391450Y-81752732D01*
X135392918Y-81793045D01*
X135393730Y-81847687D01*
X135394077Y-81919407D01*
X135394151Y-82010956D01*
X135394128Y-82069486D01*
X135393909Y-82148573D01*
X135393300Y-82209516D01*
X135392109Y-82255062D01*
X135390146Y-82287963D01*
X135387220Y-82310968D01*
X135383140Y-82326826D01*
X135377714Y-82338286D01*
X135370753Y-82348100D01*
X135340325Y-82372493D01*
X135305382Y-82375372D01*
X135268401Y-82356282D01*
X135264217Y-82352807D01*
X135256041Y-82344279D01*
X135249981Y-82332728D01*
X135245598Y-82314896D01*
X135242456Y-82287524D01*
X135240119Y-82247354D01*
X135238148Y-82191128D01*
X135236106Y-82115589D01*
X135230462Y-81896458D01*
X134965173Y-82137099D01*
X134891339Y-82203875D01*
X134826159Y-82261991D01*
X134773965Y-82306949D01*
X134732890Y-82339871D01*
X134701072Y-82361879D01*
X134676643Y-82374094D01*
X134657741Y-82377639D01*
X134642500Y-82373636D01*
X134629056Y-82363207D01*
X134615544Y-82347474D01*
X134609299Y-82338991D01*
X134603667Y-82328413D01*
X134599456Y-82314255D01*
X134596504Y-82293803D01*
X134594649Y-82264342D01*
X134593730Y-82223161D01*
X134593585Y-82167544D01*
X134594052Y-82094779D01*
X134594969Y-82002151D01*
X134598284Y-81687199D01*
X134624935Y-81665633D01*
X134651000Y-81649441D01*
X134683858Y-81646670D01*
X134718389Y-81665623D01*
X134722701Y-81669208D01*
X134730833Y-81677737D01*
X134736862Y-81689329D01*
X134741223Y-81707235D01*
X134744351Y-81734706D01*
X134746680Y-81774994D01*
X134748646Y-81831351D01*
X134750684Y-81907029D01*
X134756328Y-82126878D01*
X134936951Y-81963084D01*
X135023689Y-81884451D01*
X135099460Y-81816058D01*
X135161597Y-81760708D01*
X135211695Y-81717338D01*
X135251352Y-81684881D01*
X135282165Y-81662273D01*
X135305731Y-81648448D01*
X135323647Y-81642343D01*
X135337510Y-81642892D01*
G36*
X135337510Y-81642892D02*
G01*
X135348918Y-81649029D01*
X135359467Y-81659691D01*
X135370753Y-81673811D01*
X135375206Y-81679772D01*
X135381205Y-81690268D01*
X135385784Y-81704093D01*
X135389136Y-81723998D01*
X135391450Y-81752732D01*
X135392918Y-81793045D01*
X135393730Y-81847687D01*
X135394077Y-81919407D01*
X135394151Y-82010956D01*
X135394128Y-82069486D01*
X135393909Y-82148573D01*
X135393300Y-82209516D01*
X135392109Y-82255062D01*
X135390146Y-82287963D01*
X135387220Y-82310968D01*
X135383140Y-82326826D01*
X135377714Y-82338286D01*
X135370753Y-82348100D01*
X135340325Y-82372493D01*
X135305382Y-82375372D01*
X135268401Y-82356282D01*
X135264217Y-82352807D01*
X135256041Y-82344279D01*
X135249981Y-82332728D01*
X135245598Y-82314896D01*
X135242456Y-82287524D01*
X135240119Y-82247354D01*
X135238148Y-82191128D01*
X135236106Y-82115589D01*
X135230462Y-81896458D01*
X134965173Y-82137099D01*
X134891339Y-82203875D01*
X134826159Y-82261991D01*
X134773965Y-82306949D01*
X134732890Y-82339871D01*
X134701072Y-82361879D01*
X134676643Y-82374094D01*
X134657741Y-82377639D01*
X134642500Y-82373636D01*
X134629056Y-82363207D01*
X134615544Y-82347474D01*
X134609299Y-82338991D01*
X134603667Y-82328413D01*
X134599456Y-82314255D01*
X134596504Y-82293803D01*
X134594649Y-82264342D01*
X134593730Y-82223161D01*
X134593585Y-82167544D01*
X134594052Y-82094779D01*
X134594969Y-82002151D01*
X134598284Y-81687199D01*
X134624935Y-81665633D01*
X134651000Y-81649441D01*
X134683858Y-81646670D01*
X134718389Y-81665623D01*
X134722701Y-81669208D01*
X134730833Y-81677737D01*
X134736862Y-81689329D01*
X134741223Y-81707235D01*
X134744351Y-81734706D01*
X134746680Y-81774994D01*
X134748646Y-81831351D01*
X134750684Y-81907029D01*
X134756328Y-82126878D01*
X134936951Y-81963084D01*
X135023689Y-81884451D01*
X135099460Y-81816058D01*
X135161597Y-81760708D01*
X135211695Y-81717338D01*
X135251352Y-81684881D01*
X135282165Y-81662273D01*
X135305731Y-81648448D01*
X135323647Y-81642343D01*
X135337510Y-81642892D01*
G37*
X136134767Y-81649179D02*
X136240774Y-81665494D01*
X136334586Y-81693545D01*
X136413382Y-81732452D01*
X136474336Y-81781334D01*
X136500406Y-81814195D01*
X136529914Y-81863394D01*
X136555185Y-81917252D01*
X136572835Y-81968419D01*
X136579475Y-82009544D01*
X136577915Y-82029259D01*
X136564974Y-82080592D01*
X136541811Y-82137118D01*
X136511919Y-82191035D01*
X136478790Y-82234539D01*
X136468594Y-82244887D01*
X136401509Y-82296662D01*
X136321383Y-82336554D01*
X136235173Y-82360956D01*
X136180209Y-82369068D01*
X136086756Y-82375673D01*
X135996975Y-82373586D01*
X135914486Y-82363340D01*
X135842903Y-82345470D01*
X135785845Y-82320508D01*
X135746928Y-82288988D01*
X135745553Y-82287012D01*
X135738465Y-82261786D01*
X135734226Y-82214535D01*
X135732817Y-82145071D01*
X135733677Y-82082838D01*
X135738397Y-82035456D01*
X135750087Y-82003353D01*
X135771856Y-81983800D01*
X135806815Y-81974070D01*
X135858073Y-81971433D01*
X135928740Y-81973161D01*
X135977360Y-81976173D01*
X136027556Y-81984366D01*
X136060050Y-81998419D01*
X136077509Y-82019654D01*
X136082600Y-82049394D01*
X136082494Y-82053936D01*
X136073792Y-82088730D01*
X136049782Y-82112147D01*
X136008517Y-82125347D01*
X135948048Y-82129489D01*
X135879573Y-82129489D01*
X135879573Y-82167841D01*
X135879623Y-82176976D01*
X135881844Y-82194227D01*
X135891111Y-82204521D01*
X135912492Y-82211459D01*
X135951053Y-82218641D01*
X135956527Y-82219575D01*
X136053477Y-82229478D01*
X136143469Y-82226559D01*
X136224377Y-82211829D01*
X136294076Y-82186299D01*
X136350441Y-82150978D01*
X136391346Y-82106879D01*
X136414668Y-82055012D01*
X136418280Y-81996388D01*
X136412762Y-81967494D01*
X136386078Y-81911604D01*
X136339890Y-81865945D01*
X136274908Y-81831108D01*
X136191846Y-81807690D01*
X136167172Y-81803241D01*
X136077843Y-81792742D01*
X135998036Y-81793971D01*
X135919943Y-81806906D01*
X135884800Y-81813696D01*
X135839362Y-81814713D01*
X135808047Y-81802182D01*
X135787894Y-81775395D01*
X135781510Y-81747148D01*
X135790996Y-81715924D01*
X135800325Y-81702499D01*
X135834560Y-81678967D01*
X135887182Y-81661095D01*
X135955698Y-81649599D01*
X136037617Y-81645192D01*
X136134767Y-81649179D01*
G36*
X136134767Y-81649179D02*
G01*
X136240774Y-81665494D01*
X136334586Y-81693545D01*
X136413382Y-81732452D01*
X136474336Y-81781334D01*
X136500406Y-81814195D01*
X136529914Y-81863394D01*
X136555185Y-81917252D01*
X136572835Y-81968419D01*
X136579475Y-82009544D01*
X136577915Y-82029259D01*
X136564974Y-82080592D01*
X136541811Y-82137118D01*
X136511919Y-82191035D01*
X136478790Y-82234539D01*
X136468594Y-82244887D01*
X136401509Y-82296662D01*
X136321383Y-82336554D01*
X136235173Y-82360956D01*
X136180209Y-82369068D01*
X136086756Y-82375673D01*
X135996975Y-82373586D01*
X135914486Y-82363340D01*
X135842903Y-82345470D01*
X135785845Y-82320508D01*
X135746928Y-82288988D01*
X135745553Y-82287012D01*
X135738465Y-82261786D01*
X135734226Y-82214535D01*
X135732817Y-82145071D01*
X135733677Y-82082838D01*
X135738397Y-82035456D01*
X135750087Y-82003353D01*
X135771856Y-81983800D01*
X135806815Y-81974070D01*
X135858073Y-81971433D01*
X135928740Y-81973161D01*
X135977360Y-81976173D01*
X136027556Y-81984366D01*
X136060050Y-81998419D01*
X136077509Y-82019654D01*
X136082600Y-82049394D01*
X136082494Y-82053936D01*
X136073792Y-82088730D01*
X136049782Y-82112147D01*
X136008517Y-82125347D01*
X135948048Y-82129489D01*
X135879573Y-82129489D01*
X135879573Y-82167841D01*
X135879623Y-82176976D01*
X135881844Y-82194227D01*
X135891111Y-82204521D01*
X135912492Y-82211459D01*
X135951053Y-82218641D01*
X135956527Y-82219575D01*
X136053477Y-82229478D01*
X136143469Y-82226559D01*
X136224377Y-82211829D01*
X136294076Y-82186299D01*
X136350441Y-82150978D01*
X136391346Y-82106879D01*
X136414668Y-82055012D01*
X136418280Y-81996388D01*
X136412762Y-81967494D01*
X136386078Y-81911604D01*
X136339890Y-81865945D01*
X136274908Y-81831108D01*
X136191846Y-81807690D01*
X136167172Y-81803241D01*
X136077843Y-81792742D01*
X135998036Y-81793971D01*
X135919943Y-81806906D01*
X135884800Y-81813696D01*
X135839362Y-81814713D01*
X135808047Y-81802182D01*
X135787894Y-81775395D01*
X135781510Y-81747148D01*
X135790996Y-81715924D01*
X135800325Y-81702499D01*
X135834560Y-81678967D01*
X135887182Y-81661095D01*
X135955698Y-81649599D01*
X136037617Y-81645192D01*
X136134767Y-81649179D01*
G37*
X134185420Y-81673811D02*
X134190369Y-81680495D01*
X134196213Y-81691066D01*
X134200674Y-81705153D01*
X134203938Y-81725478D01*
X134206191Y-81754765D01*
X134207619Y-81795737D01*
X134208409Y-81851117D01*
X134208746Y-81923628D01*
X134208817Y-82015994D01*
X134208788Y-82081911D01*
X134208556Y-82160228D01*
X134207936Y-82220496D01*
X134206743Y-82265393D01*
X134204796Y-82297602D01*
X134201911Y-82319800D01*
X134197905Y-82334669D01*
X134192596Y-82344889D01*
X134185800Y-82353138D01*
X134181285Y-82357795D01*
X134173055Y-82364282D01*
X134161695Y-82369194D01*
X134144427Y-82372749D01*
X134118472Y-82375167D01*
X134081053Y-82376667D01*
X134029390Y-82377467D01*
X133960706Y-82377787D01*
X133872223Y-82377845D01*
X133852548Y-82377838D01*
X133765523Y-82377572D01*
X133697871Y-82376806D01*
X133646916Y-82375392D01*
X133609984Y-82373180D01*
X133584400Y-82370022D01*
X133567488Y-82365769D01*
X133556574Y-82360271D01*
X133546081Y-82350285D01*
X133532820Y-82319168D01*
X133534003Y-82283280D01*
X133550167Y-82251733D01*
X133552356Y-82249457D01*
X133561044Y-82243189D01*
X133574386Y-82238523D01*
X133595369Y-82235227D01*
X133626980Y-82233068D01*
X133672207Y-82231814D01*
X133734037Y-82231231D01*
X133815456Y-82231089D01*
X134062062Y-82231089D01*
X134062062Y-82073045D01*
X133899623Y-82073045D01*
X133863955Y-82072964D01*
X133808185Y-82072167D01*
X133769047Y-82070162D01*
X133742593Y-82066521D01*
X133724876Y-82060812D01*
X133711946Y-82052607D01*
X133708303Y-82049423D01*
X133689895Y-82018448D01*
X133689261Y-81982112D01*
X133706800Y-81948493D01*
X133706862Y-81948424D01*
X133716533Y-81939798D01*
X133729826Y-81933742D01*
X133750534Y-81929811D01*
X133782445Y-81927556D01*
X133829351Y-81926531D01*
X133895041Y-81926289D01*
X134063188Y-81926289D01*
X134059803Y-81861378D01*
X134056417Y-81796467D01*
X133814340Y-81793414D01*
X133789324Y-81793086D01*
X133707704Y-81791606D01*
X133645385Y-81789222D01*
X133599771Y-81785227D01*
X133568269Y-81778913D01*
X133548284Y-81769574D01*
X133537221Y-81756503D01*
X133532486Y-81738992D01*
X133531484Y-81716335D01*
X133531490Y-81713970D01*
X133532644Y-81693939D01*
X133537441Y-81678146D01*
X133548249Y-81666090D01*
X133567434Y-81657267D01*
X133597362Y-81651175D01*
X133640400Y-81647311D01*
X133698916Y-81645174D01*
X133775274Y-81644260D01*
X133871843Y-81644067D01*
X134162023Y-81644067D01*
X134185420Y-81673811D01*
G36*
X134185420Y-81673811D02*
G01*
X134190369Y-81680495D01*
X134196213Y-81691066D01*
X134200674Y-81705153D01*
X134203938Y-81725478D01*
X134206191Y-81754765D01*
X134207619Y-81795737D01*
X134208409Y-81851117D01*
X134208746Y-81923628D01*
X134208817Y-82015994D01*
X134208788Y-82081911D01*
X134208556Y-82160228D01*
X134207936Y-82220496D01*
X134206743Y-82265393D01*
X134204796Y-82297602D01*
X134201911Y-82319800D01*
X134197905Y-82334669D01*
X134192596Y-82344889D01*
X134185800Y-82353138D01*
X134181285Y-82357795D01*
X134173055Y-82364282D01*
X134161695Y-82369194D01*
X134144427Y-82372749D01*
X134118472Y-82375167D01*
X134081053Y-82376667D01*
X134029390Y-82377467D01*
X133960706Y-82377787D01*
X133872223Y-82377845D01*
X133852548Y-82377838D01*
X133765523Y-82377572D01*
X133697871Y-82376806D01*
X133646916Y-82375392D01*
X133609984Y-82373180D01*
X133584400Y-82370022D01*
X133567488Y-82365769D01*
X133556574Y-82360271D01*
X133546081Y-82350285D01*
X133532820Y-82319168D01*
X133534003Y-82283280D01*
X133550167Y-82251733D01*
X133552356Y-82249457D01*
X133561044Y-82243189D01*
X133574386Y-82238523D01*
X133595369Y-82235227D01*
X133626980Y-82233068D01*
X133672207Y-82231814D01*
X133734037Y-82231231D01*
X133815456Y-82231089D01*
X134062062Y-82231089D01*
X134062062Y-82073045D01*
X133899623Y-82073045D01*
X133863955Y-82072964D01*
X133808185Y-82072167D01*
X133769047Y-82070162D01*
X133742593Y-82066521D01*
X133724876Y-82060812D01*
X133711946Y-82052607D01*
X133708303Y-82049423D01*
X133689895Y-82018448D01*
X133689261Y-81982112D01*
X133706800Y-81948493D01*
X133706862Y-81948424D01*
X133716533Y-81939798D01*
X133729826Y-81933742D01*
X133750534Y-81929811D01*
X133782445Y-81927556D01*
X133829351Y-81926531D01*
X133895041Y-81926289D01*
X134063188Y-81926289D01*
X134059803Y-81861378D01*
X134056417Y-81796467D01*
X133814340Y-81793414D01*
X133789324Y-81793086D01*
X133707704Y-81791606D01*
X133645385Y-81789222D01*
X133599771Y-81785227D01*
X133568269Y-81778913D01*
X133548284Y-81769574D01*
X133537221Y-81756503D01*
X133532486Y-81738992D01*
X133531484Y-81716335D01*
X133531490Y-81713970D01*
X133532644Y-81693939D01*
X133537441Y-81678146D01*
X133548249Y-81666090D01*
X133567434Y-81657267D01*
X133597362Y-81651175D01*
X133640400Y-81647311D01*
X133698916Y-81645174D01*
X133775274Y-81644260D01*
X133871843Y-81644067D01*
X134162023Y-81644067D01*
X134185420Y-81673811D01*
G37*
X138862351Y-81644083D02*
X138939448Y-81644275D01*
X138998394Y-81644860D01*
X139041981Y-81646051D01*
X139073000Y-81648064D01*
X139094242Y-81651112D01*
X139108499Y-81655409D01*
X139118562Y-81661172D01*
X139127223Y-81668612D01*
X139129008Y-81670293D01*
X139136252Y-81677832D01*
X139141894Y-81686850D01*
X139146134Y-81699984D01*
X139149173Y-81719872D01*
X139151211Y-81749151D01*
X139152447Y-81790458D01*
X139153082Y-81846431D01*
X139153317Y-81919707D01*
X139153351Y-82012923D01*
X139153314Y-82085713D01*
X139153065Y-82163889D01*
X139152429Y-82224103D01*
X139151232Y-82268982D01*
X139149301Y-82301152D01*
X139146463Y-82323239D01*
X139142544Y-82337870D01*
X139137372Y-82347670D01*
X139130773Y-82355267D01*
X139127439Y-82358444D01*
X139118917Y-82364554D01*
X139106915Y-82369229D01*
X139088704Y-82372659D01*
X139061557Y-82375036D01*
X139022746Y-82376552D01*
X138969541Y-82377398D01*
X138899215Y-82377765D01*
X138809039Y-82377845D01*
X138766931Y-82377833D01*
X138685784Y-82377651D01*
X138623292Y-82377098D01*
X138576726Y-82375982D01*
X138543358Y-82374113D01*
X138520461Y-82371298D01*
X138505305Y-82367346D01*
X138495163Y-82362066D01*
X138487306Y-82355267D01*
X138472580Y-82333667D01*
X138464728Y-82304467D01*
X138470227Y-82280560D01*
X138487306Y-82253667D01*
X138492285Y-82249059D01*
X138502060Y-82242772D01*
X138516176Y-82238146D01*
X138537671Y-82234930D01*
X138569585Y-82232870D01*
X138614959Y-82231712D01*
X138676830Y-82231202D01*
X138758239Y-82231089D01*
X139006595Y-82231089D01*
X139006595Y-82073045D01*
X138845418Y-82073045D01*
X138809600Y-82072899D01*
X138743976Y-82071176D01*
X138696735Y-82066741D01*
X138665000Y-82058637D01*
X138645894Y-82045906D01*
X138636540Y-82027592D01*
X138634062Y-82002738D01*
X138634859Y-81982482D01*
X138640111Y-81960656D01*
X138652905Y-81945304D01*
X138676245Y-81935309D01*
X138713134Y-81929553D01*
X138766576Y-81926919D01*
X138839575Y-81926289D01*
X139007722Y-81926289D01*
X139004336Y-81861378D01*
X139000951Y-81796467D01*
X138753234Y-81793418D01*
X138690643Y-81792539D01*
X138622182Y-81791095D01*
X138571278Y-81789164D01*
X138535025Y-81786514D01*
X138510518Y-81782910D01*
X138494852Y-81778121D01*
X138485123Y-81771913D01*
X138479108Y-81765510D01*
X138466099Y-81733828D01*
X138469660Y-81698142D01*
X138489435Y-81667084D01*
X138492686Y-81664161D01*
X138501666Y-81657810D01*
X138513770Y-81652957D01*
X138531776Y-81649403D01*
X138558464Y-81646946D01*
X138596614Y-81645385D01*
X138649003Y-81644518D01*
X138718411Y-81644146D01*
X138807618Y-81644067D01*
X138862351Y-81644083D01*
G36*
X138862351Y-81644083D02*
G01*
X138939448Y-81644275D01*
X138998394Y-81644860D01*
X139041981Y-81646051D01*
X139073000Y-81648064D01*
X139094242Y-81651112D01*
X139108499Y-81655409D01*
X139118562Y-81661172D01*
X139127223Y-81668612D01*
X139129008Y-81670293D01*
X139136252Y-81677832D01*
X139141894Y-81686850D01*
X139146134Y-81699984D01*
X139149173Y-81719872D01*
X139151211Y-81749151D01*
X139152447Y-81790458D01*
X139153082Y-81846431D01*
X139153317Y-81919707D01*
X139153351Y-82012923D01*
X139153314Y-82085713D01*
X139153065Y-82163889D01*
X139152429Y-82224103D01*
X139151232Y-82268982D01*
X139149301Y-82301152D01*
X139146463Y-82323239D01*
X139142544Y-82337870D01*
X139137372Y-82347670D01*
X139130773Y-82355267D01*
X139127439Y-82358444D01*
X139118917Y-82364554D01*
X139106915Y-82369229D01*
X139088704Y-82372659D01*
X139061557Y-82375036D01*
X139022746Y-82376552D01*
X138969541Y-82377398D01*
X138899215Y-82377765D01*
X138809039Y-82377845D01*
X138766931Y-82377833D01*
X138685784Y-82377651D01*
X138623292Y-82377098D01*
X138576726Y-82375982D01*
X138543358Y-82374113D01*
X138520461Y-82371298D01*
X138505305Y-82367346D01*
X138495163Y-82362066D01*
X138487306Y-82355267D01*
X138472580Y-82333667D01*
X138464728Y-82304467D01*
X138470227Y-82280560D01*
X138487306Y-82253667D01*
X138492285Y-82249059D01*
X138502060Y-82242772D01*
X138516176Y-82238146D01*
X138537671Y-82234930D01*
X138569585Y-82232870D01*
X138614959Y-82231712D01*
X138676830Y-82231202D01*
X138758239Y-82231089D01*
X139006595Y-82231089D01*
X139006595Y-82073045D01*
X138845418Y-82073045D01*
X138809600Y-82072899D01*
X138743976Y-82071176D01*
X138696735Y-82066741D01*
X138665000Y-82058637D01*
X138645894Y-82045906D01*
X138636540Y-82027592D01*
X138634062Y-82002738D01*
X138634859Y-81982482D01*
X138640111Y-81960656D01*
X138652905Y-81945304D01*
X138676245Y-81935309D01*
X138713134Y-81929553D01*
X138766576Y-81926919D01*
X138839575Y-81926289D01*
X139007722Y-81926289D01*
X139004336Y-81861378D01*
X139000951Y-81796467D01*
X138753234Y-81793418D01*
X138690643Y-81792539D01*
X138622182Y-81791095D01*
X138571278Y-81789164D01*
X138535025Y-81786514D01*
X138510518Y-81782910D01*
X138494852Y-81778121D01*
X138485123Y-81771913D01*
X138479108Y-81765510D01*
X138466099Y-81733828D01*
X138469660Y-81698142D01*
X138489435Y-81667084D01*
X138492686Y-81664161D01*
X138501666Y-81657810D01*
X138513770Y-81652957D01*
X138531776Y-81649403D01*
X138558464Y-81646946D01*
X138596614Y-81645385D01*
X138649003Y-81644518D01*
X138718411Y-81644146D01*
X138807618Y-81644067D01*
X138862351Y-81644083D01*
G37*
X130295319Y-81653478D02*
X130313280Y-81671989D01*
X130333880Y-81703071D01*
X130358712Y-81748756D01*
X130389367Y-81811078D01*
X130427437Y-81892071D01*
X130442071Y-81923454D01*
X130471820Y-81986638D01*
X130497914Y-82041244D01*
X130518909Y-82084290D01*
X130533356Y-82112793D01*
X130539808Y-82123770D01*
X130541167Y-82123189D01*
X130551159Y-82109242D01*
X130568450Y-82079704D01*
X130591047Y-82038087D01*
X130616955Y-81987903D01*
X130632928Y-81956414D01*
X130661878Y-81901061D01*
X130684366Y-81862044D01*
X130702582Y-81836566D01*
X130718713Y-81821831D01*
X130734947Y-81815042D01*
X130753474Y-81813400D01*
X130763977Y-81813875D01*
X130780093Y-81818082D01*
X130795407Y-81828946D01*
X130812005Y-81849219D01*
X130831974Y-81881654D01*
X130857400Y-81929004D01*
X130890369Y-81994022D01*
X130900102Y-82013277D01*
X130924560Y-82059946D01*
X130944795Y-82096109D01*
X130958928Y-82118497D01*
X130965077Y-82123845D01*
X130966444Y-82120573D01*
X130975819Y-82099664D01*
X130992679Y-82062725D01*
X131015596Y-82012874D01*
X131043137Y-81953226D01*
X131073872Y-81886898D01*
X131100587Y-81829677D01*
X131130210Y-81767688D01*
X131153281Y-81721949D01*
X131171260Y-81689908D01*
X131185607Y-81669014D01*
X131197783Y-81656718D01*
X131209249Y-81650466D01*
X131218659Y-81647574D01*
X131243764Y-81647425D01*
X131270907Y-81662768D01*
X131272207Y-81663753D01*
X131294291Y-81686388D01*
X131305340Y-81708613D01*
X131305386Y-81709253D01*
X131300845Y-81726915D01*
X131287981Y-81761481D01*
X131268222Y-81809826D01*
X131242998Y-81868825D01*
X131213736Y-81935355D01*
X131181867Y-82006291D01*
X131148818Y-82078507D01*
X131116018Y-82148880D01*
X131084897Y-82214285D01*
X131056882Y-82271597D01*
X131033403Y-82317692D01*
X131015889Y-82349446D01*
X131005768Y-82363733D01*
X130971360Y-82377102D01*
X130929663Y-82370741D01*
X130924298Y-82366044D01*
X130908469Y-82343893D01*
X130886267Y-82307132D01*
X130859850Y-82259415D01*
X130831377Y-82204393D01*
X130751603Y-82045150D01*
X130678416Y-82191742D01*
X130668720Y-82211032D01*
X130641742Y-82263380D01*
X130617713Y-82308170D01*
X130598949Y-82341154D01*
X130587763Y-82358089D01*
X130586617Y-82359332D01*
X130558496Y-82374619D01*
X130523434Y-82376302D01*
X130492393Y-82363733D01*
X130489967Y-82360884D01*
X130477707Y-82340259D01*
X130457969Y-82302708D01*
X130432065Y-82250880D01*
X130401302Y-82187423D01*
X130366992Y-82114985D01*
X130330442Y-82036216D01*
X130310202Y-81992093D01*
X130273429Y-81911365D01*
X130244972Y-81847687D01*
X130223948Y-81798752D01*
X130209471Y-81762257D01*
X130200656Y-81735895D01*
X130196621Y-81717361D01*
X130196479Y-81704352D01*
X130199347Y-81694561D01*
X130214004Y-81673678D01*
X130240607Y-81653377D01*
X130241362Y-81653035D01*
X130260952Y-81646034D01*
X130278407Y-81645504D01*
X130295319Y-81653478D01*
G36*
X130295319Y-81653478D02*
G01*
X130313280Y-81671989D01*
X130333880Y-81703071D01*
X130358712Y-81748756D01*
X130389367Y-81811078D01*
X130427437Y-81892071D01*
X130442071Y-81923454D01*
X130471820Y-81986638D01*
X130497914Y-82041244D01*
X130518909Y-82084290D01*
X130533356Y-82112793D01*
X130539808Y-82123770D01*
X130541167Y-82123189D01*
X130551159Y-82109242D01*
X130568450Y-82079704D01*
X130591047Y-82038087D01*
X130616955Y-81987903D01*
X130632928Y-81956414D01*
X130661878Y-81901061D01*
X130684366Y-81862044D01*
X130702582Y-81836566D01*
X130718713Y-81821831D01*
X130734947Y-81815042D01*
X130753474Y-81813400D01*
X130763977Y-81813875D01*
X130780093Y-81818082D01*
X130795407Y-81828946D01*
X130812005Y-81849219D01*
X130831974Y-81881654D01*
X130857400Y-81929004D01*
X130890369Y-81994022D01*
X130900102Y-82013277D01*
X130924560Y-82059946D01*
X130944795Y-82096109D01*
X130958928Y-82118497D01*
X130965077Y-82123845D01*
X130966444Y-82120573D01*
X130975819Y-82099664D01*
X130992679Y-82062725D01*
X131015596Y-82012874D01*
X131043137Y-81953226D01*
X131073872Y-81886898D01*
X131100587Y-81829677D01*
X131130210Y-81767688D01*
X131153281Y-81721949D01*
X131171260Y-81689908D01*
X131185607Y-81669014D01*
X131197783Y-81656718D01*
X131209249Y-81650466D01*
X131218659Y-81647574D01*
X131243764Y-81647425D01*
X131270907Y-81662768D01*
X131272207Y-81663753D01*
X131294291Y-81686388D01*
X131305340Y-81708613D01*
X131305386Y-81709253D01*
X131300845Y-81726915D01*
X131287981Y-81761481D01*
X131268222Y-81809826D01*
X131242998Y-81868825D01*
X131213736Y-81935355D01*
X131181867Y-82006291D01*
X131148818Y-82078507D01*
X131116018Y-82148880D01*
X131084897Y-82214285D01*
X131056882Y-82271597D01*
X131033403Y-82317692D01*
X131015889Y-82349446D01*
X131005768Y-82363733D01*
X130971360Y-82377102D01*
X130929663Y-82370741D01*
X130924298Y-82366044D01*
X130908469Y-82343893D01*
X130886267Y-82307132D01*
X130859850Y-82259415D01*
X130831377Y-82204393D01*
X130751603Y-82045150D01*
X130678416Y-82191742D01*
X130668720Y-82211032D01*
X130641742Y-82263380D01*
X130617713Y-82308170D01*
X130598949Y-82341154D01*
X130587763Y-82358089D01*
X130586617Y-82359332D01*
X130558496Y-82374619D01*
X130523434Y-82376302D01*
X130492393Y-82363733D01*
X130489967Y-82360884D01*
X130477707Y-82340259D01*
X130457969Y-82302708D01*
X130432065Y-82250880D01*
X130401302Y-82187423D01*
X130366992Y-82114985D01*
X130330442Y-82036216D01*
X130310202Y-81992093D01*
X130273429Y-81911365D01*
X130244972Y-81847687D01*
X130223948Y-81798752D01*
X130209471Y-81762257D01*
X130200656Y-81735895D01*
X130196621Y-81717361D01*
X130196479Y-81704352D01*
X130199347Y-81694561D01*
X130214004Y-81673678D01*
X130240607Y-81653377D01*
X130241362Y-81653035D01*
X130260952Y-81646034D01*
X130278407Y-81645504D01*
X130295319Y-81653478D01*
G37*
X137846470Y-81644936D02*
X137912717Y-81650366D01*
X137968017Y-81659964D01*
X138018900Y-81674825D01*
X138090212Y-81707958D01*
X138141369Y-81750640D01*
X138172192Y-81802705D01*
X138182506Y-81863983D01*
X138181569Y-81895232D01*
X138175777Y-81920029D01*
X138160970Y-81941699D01*
X138132997Y-81969049D01*
X138125019Y-81976378D01*
X138101309Y-81997281D01*
X138078915Y-82014251D01*
X138054882Y-82028205D01*
X138026254Y-82040056D01*
X137990077Y-82050720D01*
X137943397Y-82061111D01*
X137883258Y-82072146D01*
X137806707Y-82084738D01*
X137710788Y-82099804D01*
X137692425Y-82102838D01*
X137630095Y-82116458D01*
X137584877Y-82132192D01*
X137558593Y-82149263D01*
X137553064Y-82166897D01*
X137555685Y-82171168D01*
X137573617Y-82186233D01*
X137601743Y-82202867D01*
X137614543Y-82208857D01*
X137635841Y-82216050D01*
X137662227Y-82220827D01*
X137698071Y-82223646D01*
X137747745Y-82224964D01*
X137815617Y-82225237D01*
X137833402Y-82225164D01*
X137901023Y-82224053D01*
X137965962Y-82221828D01*
X138021587Y-82218762D01*
X138061268Y-82215127D01*
X138096779Y-82211059D01*
X138126032Y-82210276D01*
X138144932Y-82214876D01*
X138160046Y-82225551D01*
X138163702Y-82229144D01*
X138180044Y-82260918D01*
X138178724Y-82296572D01*
X138159767Y-82327190D01*
X138139397Y-82338796D01*
X138103413Y-82351491D01*
X138060989Y-82361541D01*
X138057539Y-82362140D01*
X138014869Y-82367356D01*
X137957483Y-82371730D01*
X137892466Y-82374818D01*
X137826906Y-82376177D01*
X137810674Y-82376218D01*
X137712361Y-82373741D01*
X137632309Y-82365735D01*
X137567130Y-82351203D01*
X137513434Y-82329149D01*
X137467833Y-82298576D01*
X137426940Y-82258486D01*
X137406819Y-82232259D01*
X137395193Y-82202712D01*
X137392284Y-82162995D01*
X137392425Y-82151026D01*
X137396298Y-82118345D01*
X137408682Y-82091819D01*
X137433847Y-82060971D01*
X137455059Y-82038831D01*
X137481455Y-82016285D01*
X137511172Y-81997917D01*
X137547402Y-81982661D01*
X137593334Y-81969449D01*
X137652161Y-81957214D01*
X137727073Y-81944889D01*
X137821262Y-81931406D01*
X137866574Y-81924396D01*
X137934528Y-81909837D01*
X137983664Y-81893337D01*
X138013231Y-81875439D01*
X138022481Y-81856685D01*
X138010665Y-81837615D01*
X137977033Y-81818771D01*
X137973987Y-81817557D01*
X137927628Y-81805479D01*
X137864978Y-81797279D01*
X137791544Y-81793119D01*
X137712834Y-81793161D01*
X137634356Y-81797569D01*
X137561617Y-81806505D01*
X137557690Y-81807154D01*
X137508874Y-81814861D01*
X137476622Y-81818473D01*
X137455625Y-81817876D01*
X137440571Y-81812954D01*
X137426151Y-81803596D01*
X137424981Y-81802725D01*
X137400464Y-81772351D01*
X137395671Y-81736850D01*
X137411477Y-81702269D01*
X137416023Y-81697813D01*
X137445637Y-81682673D01*
X137492619Y-81669550D01*
X137552923Y-81658750D01*
X137622505Y-81650581D01*
X137697320Y-81645351D01*
X137773323Y-81643367D01*
X137846470Y-81644936D01*
G36*
X137846470Y-81644936D02*
G01*
X137912717Y-81650366D01*
X137968017Y-81659964D01*
X138018900Y-81674825D01*
X138090212Y-81707958D01*
X138141369Y-81750640D01*
X138172192Y-81802705D01*
X138182506Y-81863983D01*
X138181569Y-81895232D01*
X138175777Y-81920029D01*
X138160970Y-81941699D01*
X138132997Y-81969049D01*
X138125019Y-81976378D01*
X138101309Y-81997281D01*
X138078915Y-82014251D01*
X138054882Y-82028205D01*
X138026254Y-82040056D01*
X137990077Y-82050720D01*
X137943397Y-82061111D01*
X137883258Y-82072146D01*
X137806707Y-82084738D01*
X137710788Y-82099804D01*
X137692425Y-82102838D01*
X137630095Y-82116458D01*
X137584877Y-82132192D01*
X137558593Y-82149263D01*
X137553064Y-82166897D01*
X137555685Y-82171168D01*
X137573617Y-82186233D01*
X137601743Y-82202867D01*
X137614543Y-82208857D01*
X137635841Y-82216050D01*
X137662227Y-82220827D01*
X137698071Y-82223646D01*
X137747745Y-82224964D01*
X137815617Y-82225237D01*
X137833402Y-82225164D01*
X137901023Y-82224053D01*
X137965962Y-82221828D01*
X138021587Y-82218762D01*
X138061268Y-82215127D01*
X138096779Y-82211059D01*
X138126032Y-82210276D01*
X138144932Y-82214876D01*
X138160046Y-82225551D01*
X138163702Y-82229144D01*
X138180044Y-82260918D01*
X138178724Y-82296572D01*
X138159767Y-82327190D01*
X138139397Y-82338796D01*
X138103413Y-82351491D01*
X138060989Y-82361541D01*
X138057539Y-82362140D01*
X138014869Y-82367356D01*
X137957483Y-82371730D01*
X137892466Y-82374818D01*
X137826906Y-82376177D01*
X137810674Y-82376218D01*
X137712361Y-82373741D01*
X137632309Y-82365735D01*
X137567130Y-82351203D01*
X137513434Y-82329149D01*
X137467833Y-82298576D01*
X137426940Y-82258486D01*
X137406819Y-82232259D01*
X137395193Y-82202712D01*
X137392284Y-82162995D01*
X137392425Y-82151026D01*
X137396298Y-82118345D01*
X137408682Y-82091819D01*
X137433847Y-82060971D01*
X137455059Y-82038831D01*
X137481455Y-82016285D01*
X137511172Y-81997917D01*
X137547402Y-81982661D01*
X137593334Y-81969449D01*
X137652161Y-81957214D01*
X137727073Y-81944889D01*
X137821262Y-81931406D01*
X137866574Y-81924396D01*
X137934528Y-81909837D01*
X137983664Y-81893337D01*
X138013231Y-81875439D01*
X138022481Y-81856685D01*
X138010665Y-81837615D01*
X137977033Y-81818771D01*
X137973987Y-81817557D01*
X137927628Y-81805479D01*
X137864978Y-81797279D01*
X137791544Y-81793119D01*
X137712834Y-81793161D01*
X137634356Y-81797569D01*
X137561617Y-81806505D01*
X137557690Y-81807154D01*
X137508874Y-81814861D01*
X137476622Y-81818473D01*
X137455625Y-81817876D01*
X137440571Y-81812954D01*
X137426151Y-81803596D01*
X137424981Y-81802725D01*
X137400464Y-81772351D01*
X137395671Y-81736850D01*
X137411477Y-81702269D01*
X137416023Y-81697813D01*
X137445637Y-81682673D01*
X137492619Y-81669550D01*
X137552923Y-81658750D01*
X137622505Y-81650581D01*
X137697320Y-81645351D01*
X137773323Y-81643367D01*
X137846470Y-81644936D01*
G37*
X133994328Y-77337033D02*
X134089885Y-77354523D01*
X134254175Y-77399564D01*
X134408206Y-77462656D01*
X134554126Y-77544915D01*
X134694083Y-77647457D01*
X134830225Y-77771399D01*
X134874090Y-77816661D01*
X134986375Y-77948865D01*
X135079589Y-78086832D01*
X135156336Y-78234750D01*
X135219220Y-78396803D01*
X135223037Y-78408391D01*
X135273124Y-78594392D01*
X135306516Y-78790521D01*
X135323201Y-78992568D01*
X135323168Y-79196325D01*
X135306408Y-79397581D01*
X135272909Y-79592128D01*
X135222661Y-79775756D01*
X135178807Y-79893053D01*
X135100965Y-80055951D01*
X135007445Y-80209866D01*
X134900439Y-80351671D01*
X134782136Y-80478239D01*
X134654728Y-80586441D01*
X134577223Y-80639120D01*
X134450342Y-80708750D01*
X134312860Y-80767468D01*
X134171333Y-80812587D01*
X134032319Y-80841422D01*
X134018214Y-80843106D01*
X133974770Y-80846434D01*
X133917340Y-80849275D01*
X133851739Y-80851373D01*
X133783784Y-80852468D01*
X133656995Y-80850140D01*
X133509290Y-80837136D01*
X133371396Y-80812133D01*
X133237631Y-80774318D01*
X133214179Y-80765889D01*
X133166229Y-80746408D01*
X133109757Y-80721473D01*
X133047996Y-80692722D01*
X132984180Y-80661790D01*
X132921543Y-80630315D01*
X132863320Y-80599934D01*
X132812744Y-80572283D01*
X132773050Y-80548999D01*
X132747471Y-80531718D01*
X132739242Y-80522079D01*
X132740693Y-80518984D01*
X132751867Y-80499079D01*
X132772751Y-80463420D01*
X132801882Y-80414459D01*
X132837798Y-80354646D01*
X132879037Y-80286433D01*
X132924134Y-80212271D01*
X133105402Y-79915008D01*
X133151932Y-79959539D01*
X133243340Y-80037865D01*
X133356951Y-80112439D01*
X133474739Y-80166474D01*
X133595176Y-80199290D01*
X133716734Y-80210211D01*
X133758202Y-80208868D01*
X133875697Y-80190612D01*
X133985706Y-80151617D01*
X134087047Y-80092670D01*
X134178538Y-80014557D01*
X134258997Y-79918064D01*
X134327244Y-79803978D01*
X134343525Y-79769724D01*
X134389599Y-79646240D01*
X134424723Y-79507918D01*
X134448814Y-79358561D01*
X134461790Y-79201973D01*
X134463566Y-79041956D01*
X134454060Y-78882314D01*
X134433189Y-78726850D01*
X134400869Y-78579366D01*
X134357016Y-78443667D01*
X134319599Y-78357076D01*
X134254802Y-78243688D01*
X134179389Y-78150070D01*
X134093035Y-78075959D01*
X133995412Y-78021094D01*
X133886194Y-77985212D01*
X133765056Y-77968051D01*
X133695655Y-77966880D01*
X133572785Y-77981141D01*
X133457281Y-78016241D01*
X133350570Y-78071682D01*
X133254081Y-78146964D01*
X133238337Y-78161440D01*
X133207767Y-78187962D01*
X133185426Y-78205138D01*
X133175308Y-78209787D01*
X133173323Y-78207597D01*
X133158858Y-78188721D01*
X133135017Y-78155397D01*
X133103646Y-78110380D01*
X133066591Y-78056425D01*
X133025700Y-77996285D01*
X132982819Y-77932718D01*
X132939795Y-77868476D01*
X132898474Y-77806315D01*
X132860703Y-77748991D01*
X132828329Y-77699257D01*
X132803199Y-77659868D01*
X132787159Y-77633580D01*
X132782056Y-77623147D01*
X132786667Y-77618941D01*
X132805884Y-77613933D01*
X132815455Y-77611386D01*
X132843426Y-77600249D01*
X132885065Y-77581802D01*
X132936612Y-77557725D01*
X132994307Y-77529699D01*
X133005574Y-77524154D01*
X133183304Y-77444889D01*
X133353107Y-77385385D01*
X133517047Y-77345245D01*
X133677188Y-77324071D01*
X133835594Y-77321466D01*
X133994328Y-77337033D01*
G36*
X133994328Y-77337033D02*
G01*
X134089885Y-77354523D01*
X134254175Y-77399564D01*
X134408206Y-77462656D01*
X134554126Y-77544915D01*
X134694083Y-77647457D01*
X134830225Y-77771399D01*
X134874090Y-77816661D01*
X134986375Y-77948865D01*
X135079589Y-78086832D01*
X135156336Y-78234750D01*
X135219220Y-78396803D01*
X135223037Y-78408391D01*
X135273124Y-78594392D01*
X135306516Y-78790521D01*
X135323201Y-78992568D01*
X135323168Y-79196325D01*
X135306408Y-79397581D01*
X135272909Y-79592128D01*
X135222661Y-79775756D01*
X135178807Y-79893053D01*
X135100965Y-80055951D01*
X135007445Y-80209866D01*
X134900439Y-80351671D01*
X134782136Y-80478239D01*
X134654728Y-80586441D01*
X134577223Y-80639120D01*
X134450342Y-80708750D01*
X134312860Y-80767468D01*
X134171333Y-80812587D01*
X134032319Y-80841422D01*
X134018214Y-80843106D01*
X133974770Y-80846434D01*
X133917340Y-80849275D01*
X133851739Y-80851373D01*
X133783784Y-80852468D01*
X133656995Y-80850140D01*
X133509290Y-80837136D01*
X133371396Y-80812133D01*
X133237631Y-80774318D01*
X133214179Y-80765889D01*
X133166229Y-80746408D01*
X133109757Y-80721473D01*
X133047996Y-80692722D01*
X132984180Y-80661790D01*
X132921543Y-80630315D01*
X132863320Y-80599934D01*
X132812744Y-80572283D01*
X132773050Y-80548999D01*
X132747471Y-80531718D01*
X132739242Y-80522079D01*
X132740693Y-80518984D01*
X132751867Y-80499079D01*
X132772751Y-80463420D01*
X132801882Y-80414459D01*
X132837798Y-80354646D01*
X132879037Y-80286433D01*
X132924134Y-80212271D01*
X133105402Y-79915008D01*
X133151932Y-79959539D01*
X133243340Y-80037865D01*
X133356951Y-80112439D01*
X133474739Y-80166474D01*
X133595176Y-80199290D01*
X133716734Y-80210211D01*
X133758202Y-80208868D01*
X133875697Y-80190612D01*
X133985706Y-80151617D01*
X134087047Y-80092670D01*
X134178538Y-80014557D01*
X134258997Y-79918064D01*
X134327244Y-79803978D01*
X134343525Y-79769724D01*
X134389599Y-79646240D01*
X134424723Y-79507918D01*
X134448814Y-79358561D01*
X134461790Y-79201973D01*
X134463566Y-79041956D01*
X134454060Y-78882314D01*
X134433189Y-78726850D01*
X134400869Y-78579366D01*
X134357016Y-78443667D01*
X134319599Y-78357076D01*
X134254802Y-78243688D01*
X134179389Y-78150070D01*
X134093035Y-78075959D01*
X133995412Y-78021094D01*
X133886194Y-77985212D01*
X133765056Y-77968051D01*
X133695655Y-77966880D01*
X133572785Y-77981141D01*
X133457281Y-78016241D01*
X133350570Y-78071682D01*
X133254081Y-78146964D01*
X133238337Y-78161440D01*
X133207767Y-78187962D01*
X133185426Y-78205138D01*
X133175308Y-78209787D01*
X133173323Y-78207597D01*
X133158858Y-78188721D01*
X133135017Y-78155397D01*
X133103646Y-78110380D01*
X133066591Y-78056425D01*
X133025700Y-77996285D01*
X132982819Y-77932718D01*
X132939795Y-77868476D01*
X132898474Y-77806315D01*
X132860703Y-77748991D01*
X132828329Y-77699257D01*
X132803199Y-77659868D01*
X132787159Y-77633580D01*
X132782056Y-77623147D01*
X132786667Y-77618941D01*
X132805884Y-77613933D01*
X132815455Y-77611386D01*
X132843426Y-77600249D01*
X132885065Y-77581802D01*
X132936612Y-77557725D01*
X132994307Y-77529699D01*
X133005574Y-77524154D01*
X133183304Y-77444889D01*
X133353107Y-77385385D01*
X133517047Y-77345245D01*
X133677188Y-77324071D01*
X133835594Y-77321466D01*
X133994328Y-77337033D01*
G37*
X130191611Y-79617711D02*
X130190885Y-79695158D01*
X130182306Y-79846594D01*
X130163450Y-79983283D01*
X130133454Y-80109276D01*
X130091453Y-80228625D01*
X130036586Y-80345381D01*
X129969784Y-80456179D01*
X129878980Y-80569739D01*
X129775325Y-80665211D01*
X129659504Y-80742073D01*
X129532203Y-80799797D01*
X129394106Y-80837858D01*
X129356410Y-80843666D01*
X129277369Y-80849396D01*
X129189246Y-80849583D01*
X129099853Y-80844539D01*
X129017001Y-80834578D01*
X128948504Y-80820012D01*
X128917652Y-80810364D01*
X128840347Y-80780123D01*
X128763296Y-80742617D01*
X128693817Y-80701614D01*
X128639232Y-80660879D01*
X128616533Y-80641505D01*
X128593818Y-80623662D01*
X128582396Y-80616778D01*
X128581154Y-80618424D01*
X128578345Y-80636205D01*
X128576393Y-80669370D01*
X128575662Y-80712733D01*
X128575662Y-80808689D01*
X127717513Y-80808689D01*
X127751778Y-80747974D01*
X127756972Y-80738868D01*
X127765332Y-80724249D01*
X127772905Y-80710173D01*
X127779729Y-80695540D01*
X127785844Y-80679249D01*
X127791290Y-80660198D01*
X127796104Y-80637286D01*
X127800325Y-80609413D01*
X127803994Y-80575478D01*
X127807148Y-80534379D01*
X127809828Y-80485015D01*
X127812071Y-80426286D01*
X127813916Y-80357090D01*
X127815404Y-80276326D01*
X127816572Y-80182894D01*
X127817461Y-80075692D01*
X127818108Y-79953620D01*
X127818553Y-79815576D01*
X127818835Y-79660459D01*
X127818992Y-79487168D01*
X127819065Y-79294603D01*
X127819091Y-79081662D01*
X127819102Y-78945530D01*
X128620817Y-78945530D01*
X128620817Y-80095721D01*
X128691373Y-80142089D01*
X128732034Y-80165791D01*
X128786163Y-80191639D01*
X128835306Y-80209829D01*
X128898782Y-80225551D01*
X128994948Y-80236541D01*
X129079517Y-80228365D01*
X129152836Y-80200805D01*
X129215254Y-80153642D01*
X129267119Y-80086658D01*
X129308777Y-79999633D01*
X129340579Y-79892350D01*
X129343162Y-79880009D01*
X129351617Y-79818772D01*
X129357280Y-79741692D01*
X129360193Y-79654002D01*
X129360400Y-79560934D01*
X129357947Y-79467720D01*
X129352878Y-79379594D01*
X129345236Y-79301788D01*
X129335065Y-79239533D01*
X129333784Y-79233666D01*
X129304743Y-79123121D01*
X129270227Y-79032575D01*
X129229073Y-78959953D01*
X129180116Y-78903181D01*
X129122191Y-78860184D01*
X129090237Y-78844615D01*
X129017401Y-78825722D01*
X128936060Y-78822465D01*
X128850936Y-78834389D01*
X128766750Y-78861040D01*
X128688225Y-78901962D01*
X128620817Y-78945530D01*
X127819102Y-78945530D01*
X127819110Y-78847245D01*
X127819306Y-77162378D01*
X128724634Y-77162378D01*
X128700202Y-77199067D01*
X128693935Y-77208647D01*
X128667825Y-77254981D01*
X128650086Y-77302102D01*
X128638525Y-77357251D01*
X128630948Y-77427667D01*
X128630456Y-77434650D01*
X128628679Y-77472641D01*
X128627061Y-77526576D01*
X128625616Y-77593703D01*
X128624357Y-77671271D01*
X128623297Y-77756528D01*
X128622446Y-77846724D01*
X128621820Y-77939107D01*
X128621429Y-78030925D01*
X128621287Y-78119427D01*
X128621407Y-78201862D01*
X128621800Y-78275479D01*
X128622479Y-78337526D01*
X128623458Y-78385251D01*
X128624749Y-78415904D01*
X128626364Y-78426733D01*
X128634574Y-78422333D01*
X128656264Y-78407362D01*
X128685631Y-78385448D01*
X128734496Y-78351236D01*
X128822742Y-78304714D01*
X128921533Y-78271046D01*
X129034127Y-78249231D01*
X129163781Y-78238265D01*
X129256287Y-78237219D01*
X129377628Y-78247014D01*
X129487716Y-78271174D01*
X129591006Y-78310785D01*
X129691955Y-78366932D01*
X129737120Y-78397883D01*
X129842528Y-78489115D01*
X129934155Y-78598106D01*
X130011949Y-78724726D01*
X130075858Y-78868845D01*
X130125831Y-79030332D01*
X130161815Y-79209059D01*
X130183760Y-79404895D01*
X130189517Y-79560934D01*
X130191611Y-79617711D01*
G36*
X130191611Y-79617711D02*
G01*
X130190885Y-79695158D01*
X130182306Y-79846594D01*
X130163450Y-79983283D01*
X130133454Y-80109276D01*
X130091453Y-80228625D01*
X130036586Y-80345381D01*
X129969784Y-80456179D01*
X129878980Y-80569739D01*
X129775325Y-80665211D01*
X129659504Y-80742073D01*
X129532203Y-80799797D01*
X129394106Y-80837858D01*
X129356410Y-80843666D01*
X129277369Y-80849396D01*
X129189246Y-80849583D01*
X129099853Y-80844539D01*
X129017001Y-80834578D01*
X128948504Y-80820012D01*
X128917652Y-80810364D01*
X128840347Y-80780123D01*
X128763296Y-80742617D01*
X128693817Y-80701614D01*
X128639232Y-80660879D01*
X128616533Y-80641505D01*
X128593818Y-80623662D01*
X128582396Y-80616778D01*
X128581154Y-80618424D01*
X128578345Y-80636205D01*
X128576393Y-80669370D01*
X128575662Y-80712733D01*
X128575662Y-80808689D01*
X127717513Y-80808689D01*
X127751778Y-80747974D01*
X127756972Y-80738868D01*
X127765332Y-80724249D01*
X127772905Y-80710173D01*
X127779729Y-80695540D01*
X127785844Y-80679249D01*
X127791290Y-80660198D01*
X127796104Y-80637286D01*
X127800325Y-80609413D01*
X127803994Y-80575478D01*
X127807148Y-80534379D01*
X127809828Y-80485015D01*
X127812071Y-80426286D01*
X127813916Y-80357090D01*
X127815404Y-80276326D01*
X127816572Y-80182894D01*
X127817461Y-80075692D01*
X127818108Y-79953620D01*
X127818553Y-79815576D01*
X127818835Y-79660459D01*
X127818992Y-79487168D01*
X127819065Y-79294603D01*
X127819091Y-79081662D01*
X127819102Y-78945530D01*
X128620817Y-78945530D01*
X128620817Y-80095721D01*
X128691373Y-80142089D01*
X128732034Y-80165791D01*
X128786163Y-80191639D01*
X128835306Y-80209829D01*
X128898782Y-80225551D01*
X128994948Y-80236541D01*
X129079517Y-80228365D01*
X129152836Y-80200805D01*
X129215254Y-80153642D01*
X129267119Y-80086658D01*
X129308777Y-79999633D01*
X129340579Y-79892350D01*
X129343162Y-79880009D01*
X129351617Y-79818772D01*
X129357280Y-79741692D01*
X129360193Y-79654002D01*
X129360400Y-79560934D01*
X129357947Y-79467720D01*
X129352878Y-79379594D01*
X129345236Y-79301788D01*
X129335065Y-79239533D01*
X129333784Y-79233666D01*
X129304743Y-79123121D01*
X129270227Y-79032575D01*
X129229073Y-78959953D01*
X129180116Y-78903181D01*
X129122191Y-78860184D01*
X129090237Y-78844615D01*
X129017401Y-78825722D01*
X128936060Y-78822465D01*
X128850936Y-78834389D01*
X128766750Y-78861040D01*
X128688225Y-78901962D01*
X128620817Y-78945530D01*
X127819102Y-78945530D01*
X127819110Y-78847245D01*
X127819306Y-77162378D01*
X128724634Y-77162378D01*
X128700202Y-77199067D01*
X128693935Y-77208647D01*
X128667825Y-77254981D01*
X128650086Y-77302102D01*
X128638525Y-77357251D01*
X128630948Y-77427667D01*
X128630456Y-77434650D01*
X128628679Y-77472641D01*
X128627061Y-77526576D01*
X128625616Y-77593703D01*
X128624357Y-77671271D01*
X128623297Y-77756528D01*
X128622446Y-77846724D01*
X128621820Y-77939107D01*
X128621429Y-78030925D01*
X128621287Y-78119427D01*
X128621407Y-78201862D01*
X128621800Y-78275479D01*
X128622479Y-78337526D01*
X128623458Y-78385251D01*
X128624749Y-78415904D01*
X128626364Y-78426733D01*
X128634574Y-78422333D01*
X128656264Y-78407362D01*
X128685631Y-78385448D01*
X128734496Y-78351236D01*
X128822742Y-78304714D01*
X128921533Y-78271046D01*
X129034127Y-78249231D01*
X129163781Y-78238265D01*
X129256287Y-78237219D01*
X129377628Y-78247014D01*
X129487716Y-78271174D01*
X129591006Y-78310785D01*
X129691955Y-78366932D01*
X129737120Y-78397883D01*
X129842528Y-78489115D01*
X129934155Y-78598106D01*
X130011949Y-78724726D01*
X130075858Y-78868845D01*
X130125831Y-79030332D01*
X130161815Y-79209059D01*
X130183760Y-79404895D01*
X130189517Y-79560934D01*
X130191611Y-79617711D01*
G37*
X132733372Y-80018467D02*
X132732878Y-80052363D01*
X132729249Y-80127202D01*
X132721639Y-80189401D01*
X132709305Y-80245984D01*
X132664930Y-80372076D01*
X132602017Y-80486679D01*
X132521855Y-80587568D01*
X132425357Y-80673924D01*
X132313439Y-80744932D01*
X132187014Y-80799776D01*
X132046995Y-80837638D01*
X132010766Y-80843351D01*
X131931772Y-80849313D01*
X131843458Y-80849646D01*
X131753692Y-80844659D01*
X131670339Y-80834666D01*
X131601268Y-80819978D01*
X131514804Y-80789749D01*
X131404903Y-80735057D01*
X131307573Y-80667543D01*
X131245484Y-80616556D01*
X131242222Y-80712622D01*
X131238960Y-80808689D01*
X130816067Y-80808689D01*
X130805160Y-80808686D01*
X130710673Y-80808380D01*
X130623948Y-80807616D01*
X130547454Y-80806451D01*
X130483660Y-80804942D01*
X130435035Y-80803147D01*
X130404050Y-80801121D01*
X130393173Y-80798922D01*
X130393195Y-80798463D01*
X130400231Y-80782910D01*
X130416051Y-80760071D01*
X130420351Y-80754638D01*
X130431394Y-80740606D01*
X130440928Y-80727186D01*
X130449078Y-80712722D01*
X130455969Y-80695556D01*
X130461728Y-80674034D01*
X130466479Y-80646498D01*
X130470348Y-80611292D01*
X130473461Y-80566760D01*
X130475942Y-80511246D01*
X130477917Y-80443093D01*
X130479511Y-80360645D01*
X130480851Y-80262246D01*
X130482061Y-80146239D01*
X130483266Y-80010968D01*
X130484212Y-79899586D01*
X131284995Y-79899586D01*
X131284995Y-80095462D01*
X131329665Y-80151973D01*
X131342402Y-80167212D01*
X131389221Y-80209844D01*
X131449872Y-80245672D01*
X131460514Y-80250850D01*
X131499293Y-80267745D01*
X131534309Y-80277909D01*
X131574339Y-80283325D01*
X131628158Y-80285978D01*
X131646265Y-80286383D01*
X131721628Y-80283540D01*
X131782360Y-80271620D01*
X131834069Y-80249037D01*
X131882363Y-80214211D01*
X131887420Y-80209798D01*
X131935889Y-80154160D01*
X131964076Y-80090333D01*
X131973369Y-80015282D01*
X131966137Y-79943693D01*
X131941413Y-79880645D01*
X131896866Y-79822758D01*
X131841936Y-79775808D01*
X131769511Y-79735961D01*
X131682957Y-79708263D01*
X131580287Y-79692096D01*
X131459511Y-79686842D01*
X131450624Y-79686857D01*
X131395277Y-79687655D01*
X131348353Y-79689488D01*
X131314570Y-79692111D01*
X131298645Y-79695274D01*
X131294560Y-79701741D01*
X131290189Y-79723875D01*
X131287221Y-79762988D01*
X131285531Y-79820939D01*
X131284995Y-79899586D01*
X130484212Y-79899586D01*
X130484592Y-79854778D01*
X130485845Y-79712012D01*
X130487268Y-79566942D01*
X130488793Y-79441027D01*
X130490550Y-79332436D01*
X130492668Y-79239334D01*
X130495277Y-79159891D01*
X130498507Y-79092273D01*
X130502486Y-79034649D01*
X130507345Y-78985185D01*
X130513214Y-78942050D01*
X130520221Y-78903410D01*
X130528497Y-78867434D01*
X130538171Y-78832289D01*
X130549373Y-78796142D01*
X130562233Y-78757161D01*
X130577707Y-78714091D01*
X130620611Y-78621871D01*
X130674352Y-78542099D01*
X130743193Y-78467965D01*
X130820802Y-78404405D01*
X130925378Y-78342725D01*
X131044861Y-78295202D01*
X131180125Y-78261567D01*
X131332043Y-78241552D01*
X131501489Y-78234889D01*
X131559507Y-78235287D01*
X131625015Y-78237335D01*
X131686310Y-78241704D01*
X131747714Y-78249035D01*
X131813549Y-78259969D01*
X131888137Y-78275147D01*
X131975801Y-78295209D01*
X132080862Y-78320797D01*
X132109423Y-78327820D01*
X132184671Y-78345776D01*
X132255005Y-78361820D01*
X132316184Y-78375028D01*
X132363971Y-78384474D01*
X132394128Y-78389231D01*
X132422400Y-78392910D01*
X132448677Y-78398187D01*
X132458676Y-78402942D01*
X132455569Y-78411781D01*
X132444811Y-78439072D01*
X132427481Y-78481906D01*
X132404743Y-78537425D01*
X132377764Y-78602772D01*
X132347707Y-78675089D01*
X132341110Y-78690879D01*
X132302524Y-78781484D01*
X132271385Y-78851217D01*
X132247534Y-78900405D01*
X132230815Y-78929374D01*
X132221071Y-78938452D01*
X132213383Y-78936405D01*
X132187032Y-78926760D01*
X132148599Y-78911190D01*
X132103439Y-78891815D01*
X132008910Y-78853814D01*
X131872097Y-78812780D01*
X131730906Y-78787612D01*
X131692931Y-78783611D01*
X131589676Y-78781447D01*
X131502569Y-78794622D01*
X131430746Y-78823756D01*
X131373348Y-78869466D01*
X131329513Y-78932372D01*
X131298379Y-79013092D01*
X131279087Y-79112245D01*
X131271667Y-79171224D01*
X131433553Y-79164445D01*
X131560112Y-79162813D01*
X131711568Y-79169194D01*
X131860013Y-79183777D01*
X131996195Y-79205882D01*
X132060862Y-79220821D01*
X132193107Y-79263741D01*
X132315379Y-79320340D01*
X132425302Y-79389017D01*
X132520500Y-79468170D01*
X132598597Y-79556196D01*
X132657216Y-79651493D01*
X132681212Y-79703864D01*
X132706849Y-79774590D01*
X132723095Y-79845812D01*
X132731439Y-79924712D01*
X132733307Y-80015282D01*
X132733372Y-80018467D01*
G36*
X132733372Y-80018467D02*
G01*
X132732878Y-80052363D01*
X132729249Y-80127202D01*
X132721639Y-80189401D01*
X132709305Y-80245984D01*
X132664930Y-80372076D01*
X132602017Y-80486679D01*
X132521855Y-80587568D01*
X132425357Y-80673924D01*
X132313439Y-80744932D01*
X132187014Y-80799776D01*
X132046995Y-80837638D01*
X132010766Y-80843351D01*
X131931772Y-80849313D01*
X131843458Y-80849646D01*
X131753692Y-80844659D01*
X131670339Y-80834666D01*
X131601268Y-80819978D01*
X131514804Y-80789749D01*
X131404903Y-80735057D01*
X131307573Y-80667543D01*
X131245484Y-80616556D01*
X131242222Y-80712622D01*
X131238960Y-80808689D01*
X130816067Y-80808689D01*
X130805160Y-80808686D01*
X130710673Y-80808380D01*
X130623948Y-80807616D01*
X130547454Y-80806451D01*
X130483660Y-80804942D01*
X130435035Y-80803147D01*
X130404050Y-80801121D01*
X130393173Y-80798922D01*
X130393195Y-80798463D01*
X130400231Y-80782910D01*
X130416051Y-80760071D01*
X130420351Y-80754638D01*
X130431394Y-80740606D01*
X130440928Y-80727186D01*
X130449078Y-80712722D01*
X130455969Y-80695556D01*
X130461728Y-80674034D01*
X130466479Y-80646498D01*
X130470348Y-80611292D01*
X130473461Y-80566760D01*
X130475942Y-80511246D01*
X130477917Y-80443093D01*
X130479511Y-80360645D01*
X130480851Y-80262246D01*
X130482061Y-80146239D01*
X130483266Y-80010968D01*
X130484212Y-79899586D01*
X131284995Y-79899586D01*
X131284995Y-80095462D01*
X131329665Y-80151973D01*
X131342402Y-80167212D01*
X131389221Y-80209844D01*
X131449872Y-80245672D01*
X131460514Y-80250850D01*
X131499293Y-80267745D01*
X131534309Y-80277909D01*
X131574339Y-80283325D01*
X131628158Y-80285978D01*
X131646265Y-80286383D01*
X131721628Y-80283540D01*
X131782360Y-80271620D01*
X131834069Y-80249037D01*
X131882363Y-80214211D01*
X131887420Y-80209798D01*
X131935889Y-80154160D01*
X131964076Y-80090333D01*
X131973369Y-80015282D01*
X131966137Y-79943693D01*
X131941413Y-79880645D01*
X131896866Y-79822758D01*
X131841936Y-79775808D01*
X131769511Y-79735961D01*
X131682957Y-79708263D01*
X131580287Y-79692096D01*
X131459511Y-79686842D01*
X131450624Y-79686857D01*
X131395277Y-79687655D01*
X131348353Y-79689488D01*
X131314570Y-79692111D01*
X131298645Y-79695274D01*
X131294560Y-79701741D01*
X131290189Y-79723875D01*
X131287221Y-79762988D01*
X131285531Y-79820939D01*
X131284995Y-79899586D01*
X130484212Y-79899586D01*
X130484592Y-79854778D01*
X130485845Y-79712012D01*
X130487268Y-79566942D01*
X130488793Y-79441027D01*
X130490550Y-79332436D01*
X130492668Y-79239334D01*
X130495277Y-79159891D01*
X130498507Y-79092273D01*
X130502486Y-79034649D01*
X130507345Y-78985185D01*
X130513214Y-78942050D01*
X130520221Y-78903410D01*
X130528497Y-78867434D01*
X130538171Y-78832289D01*
X130549373Y-78796142D01*
X130562233Y-78757161D01*
X130577707Y-78714091D01*
X130620611Y-78621871D01*
X130674352Y-78542099D01*
X130743193Y-78467965D01*
X130820802Y-78404405D01*
X130925378Y-78342725D01*
X131044861Y-78295202D01*
X131180125Y-78261567D01*
X131332043Y-78241552D01*
X131501489Y-78234889D01*
X131559507Y-78235287D01*
X131625015Y-78237335D01*
X131686310Y-78241704D01*
X131747714Y-78249035D01*
X131813549Y-78259969D01*
X131888137Y-78275147D01*
X131975801Y-78295209D01*
X132080862Y-78320797D01*
X132109423Y-78327820D01*
X132184671Y-78345776D01*
X132255005Y-78361820D01*
X132316184Y-78375028D01*
X132363971Y-78384474D01*
X132394128Y-78389231D01*
X132422400Y-78392910D01*
X132448677Y-78398187D01*
X132458676Y-78402942D01*
X132455569Y-78411781D01*
X132444811Y-78439072D01*
X132427481Y-78481906D01*
X132404743Y-78537425D01*
X132377764Y-78602772D01*
X132347707Y-78675089D01*
X132341110Y-78690879D01*
X132302524Y-78781484D01*
X132271385Y-78851217D01*
X132247534Y-78900405D01*
X132230815Y-78929374D01*
X132221071Y-78938452D01*
X132213383Y-78936405D01*
X132187032Y-78926760D01*
X132148599Y-78911190D01*
X132103439Y-78891815D01*
X132008910Y-78853814D01*
X131872097Y-78812780D01*
X131730906Y-78787612D01*
X131692931Y-78783611D01*
X131589676Y-78781447D01*
X131502569Y-78794622D01*
X131430746Y-78823756D01*
X131373348Y-78869466D01*
X131329513Y-78932372D01*
X131298379Y-79013092D01*
X131279087Y-79112245D01*
X131271667Y-79171224D01*
X131433553Y-79164445D01*
X131560112Y-79162813D01*
X131711568Y-79169194D01*
X131860013Y-79183777D01*
X131996195Y-79205882D01*
X132060862Y-79220821D01*
X132193107Y-79263741D01*
X132315379Y-79320340D01*
X132425302Y-79389017D01*
X132520500Y-79468170D01*
X132598597Y-79556196D01*
X132657216Y-79651493D01*
X132681212Y-79703864D01*
X132706849Y-79774590D01*
X132723095Y-79845812D01*
X132731439Y-79924712D01*
X132733307Y-80015282D01*
X132733372Y-80018467D01*
G37*
X140281231Y-77486792D02*
X140281676Y-77618011D01*
X140281979Y-77765216D01*
X140282165Y-77929349D01*
X140282259Y-78111352D01*
X140282288Y-78312165D01*
X140282278Y-78532732D01*
X140282253Y-78773992D01*
X140282239Y-79036889D01*
X140282239Y-79079040D01*
X140282263Y-79339668D01*
X140282302Y-79578796D01*
X140282325Y-79797360D01*
X140282304Y-79996295D01*
X140282210Y-80176535D01*
X140282012Y-80339015D01*
X140281680Y-80484670D01*
X140281186Y-80614434D01*
X140280500Y-80729243D01*
X140279593Y-80830030D01*
X140278434Y-80917730D01*
X140276995Y-80993279D01*
X140275246Y-81057611D01*
X140273157Y-81111661D01*
X140270700Y-81156363D01*
X140267844Y-81192652D01*
X140264560Y-81221463D01*
X140260819Y-81243731D01*
X140256591Y-81260390D01*
X140251846Y-81272375D01*
X140246556Y-81280621D01*
X140240690Y-81286062D01*
X140234219Y-81289634D01*
X140227114Y-81292270D01*
X140219345Y-81294906D01*
X140210883Y-81298477D01*
X140206525Y-81300145D01*
X140198012Y-81302111D01*
X140185311Y-81303911D01*
X140167502Y-81305555D01*
X140143666Y-81307047D01*
X140112883Y-81308397D01*
X140074234Y-81309611D01*
X140026799Y-81310697D01*
X139969660Y-81311661D01*
X139901896Y-81312511D01*
X139822588Y-81313253D01*
X139730816Y-81313897D01*
X139625661Y-81314447D01*
X139506204Y-81314913D01*
X139371525Y-81315300D01*
X139220705Y-81315616D01*
X139052823Y-81315869D01*
X138866962Y-81316066D01*
X138662200Y-81316213D01*
X138437619Y-81316318D01*
X138192299Y-81316389D01*
X137925321Y-81316432D01*
X137886938Y-81316437D01*
X137621539Y-81316480D01*
X137377667Y-81316525D01*
X137154400Y-81316548D01*
X136950813Y-81316524D01*
X136765984Y-81316430D01*
X136598990Y-81316243D01*
X136448907Y-81315939D01*
X136314813Y-81315494D01*
X136195783Y-81314885D01*
X136090896Y-81314089D01*
X135999227Y-81313080D01*
X135919854Y-81311837D01*
X135851854Y-81310335D01*
X135794303Y-81308551D01*
X135746279Y-81306461D01*
X135706857Y-81304042D01*
X135675116Y-81301270D01*
X135650131Y-81298121D01*
X135630981Y-81294572D01*
X135616740Y-81290598D01*
X135606488Y-81286178D01*
X135599299Y-81281286D01*
X135594252Y-81275900D01*
X135590422Y-81269996D01*
X135586888Y-81263549D01*
X135582725Y-81256537D01*
X135581642Y-81254687D01*
X135579430Y-81249180D01*
X135577403Y-81240868D01*
X135575555Y-81228809D01*
X135573878Y-81212063D01*
X135572362Y-81189687D01*
X135571000Y-81160740D01*
X135569784Y-81124280D01*
X135568706Y-81079367D01*
X135567757Y-81025057D01*
X135566929Y-80960410D01*
X135566214Y-80884484D01*
X135565604Y-80796338D01*
X135565559Y-80787493D01*
X135856995Y-80787493D01*
X135860877Y-80788765D01*
X135884137Y-80790791D01*
X135926491Y-80792626D01*
X135985749Y-80794227D01*
X136059724Y-80795549D01*
X136146227Y-80796548D01*
X136243069Y-80797180D01*
X136348062Y-80797400D01*
X137046268Y-80797400D01*
X138200707Y-80797400D01*
X138200073Y-80721200D01*
X138201191Y-80679160D01*
X138206921Y-80643334D01*
X138219507Y-80605772D01*
X138241185Y-80557577D01*
X138244406Y-80550897D01*
X138269805Y-80501359D01*
X138296613Y-80453369D01*
X138319534Y-80416466D01*
X138324102Y-80409834D01*
X138346133Y-80378593D01*
X138378310Y-80333654D01*
X138419074Y-80277147D01*
X138466862Y-80211204D01*
X138520115Y-80137957D01*
X138577272Y-80059536D01*
X138636772Y-79978072D01*
X138697054Y-79895698D01*
X138756557Y-79814544D01*
X138813722Y-79736742D01*
X138866987Y-79664423D01*
X138914791Y-79599718D01*
X138955574Y-79544759D01*
X138987775Y-79501676D01*
X139009833Y-79472602D01*
X139020188Y-79459667D01*
X139024661Y-79455351D01*
X139028853Y-79453312D01*
X139032260Y-79455926D01*
X139034942Y-79464986D01*
X139036958Y-79482285D01*
X139038365Y-79509614D01*
X139039222Y-79548765D01*
X139039587Y-79601533D01*
X139039520Y-79669707D01*
X139039077Y-79755082D01*
X139038319Y-79859449D01*
X139037302Y-79984600D01*
X139036925Y-80029300D01*
X139035786Y-80150395D01*
X139034589Y-80251688D01*
X139033253Y-80335262D01*
X139031694Y-80403204D01*
X139029832Y-80457599D01*
X139027583Y-80500532D01*
X139024865Y-80534089D01*
X139021596Y-80560355D01*
X139017695Y-80581416D01*
X139013078Y-80599357D01*
X139004809Y-80625770D01*
X138981200Y-80687772D01*
X138955302Y-80740573D01*
X138930152Y-80777645D01*
X138928956Y-80779075D01*
X138926785Y-80783424D01*
X138928945Y-80787026D01*
X138937261Y-80789951D01*
X138953557Y-80792269D01*
X138979658Y-80794051D01*
X139017388Y-80795367D01*
X139068573Y-80796286D01*
X139135037Y-80796878D01*
X139218604Y-80797215D01*
X139321100Y-80797365D01*
X139444349Y-80797400D01*
X139975913Y-80797400D01*
X139937140Y-80739783D01*
X139931049Y-80730893D01*
X139920593Y-80716069D01*
X139911196Y-80702422D01*
X139902800Y-80688765D01*
X139895350Y-80673911D01*
X139888790Y-80656670D01*
X139883063Y-80635855D01*
X139878112Y-80610280D01*
X139873883Y-80578755D01*
X139870318Y-80540093D01*
X139867361Y-80493107D01*
X139864957Y-80436608D01*
X139863048Y-80369409D01*
X139861579Y-80290322D01*
X139860493Y-80198160D01*
X139859735Y-80091734D01*
X139859247Y-79969857D01*
X139858975Y-79831341D01*
X139858860Y-79674999D01*
X139858848Y-79499642D01*
X139858882Y-79304082D01*
X139858906Y-79087133D01*
X139858897Y-78964513D01*
X139858860Y-78759447D01*
X139858844Y-78575116D01*
X139858905Y-78410334D01*
X139859101Y-78263916D01*
X139859487Y-78134674D01*
X139860122Y-78021422D01*
X139861061Y-77922975D01*
X139862362Y-77838144D01*
X139864081Y-77765744D01*
X139866276Y-77704589D01*
X139869002Y-77653492D01*
X139872318Y-77611267D01*
X139876279Y-77576727D01*
X139880942Y-77548686D01*
X139886364Y-77525958D01*
X139892603Y-77507356D01*
X139899714Y-77491693D01*
X139907755Y-77477784D01*
X139916783Y-77464441D01*
X139926853Y-77450479D01*
X139938024Y-77434711D01*
X139977814Y-77376867D01*
X138917931Y-77376867D01*
X138955928Y-77439966D01*
X138970610Y-77465005D01*
X138985148Y-77492586D01*
X138997244Y-77520700D01*
X139007149Y-77551551D01*
X139015111Y-77587344D01*
X139021378Y-77630283D01*
X139026199Y-77682574D01*
X139029823Y-77746419D01*
X139032498Y-77824025D01*
X139034474Y-77917594D01*
X139035999Y-78029333D01*
X139037321Y-78161445D01*
X139038230Y-78281434D01*
X139038637Y-78398063D01*
X139038384Y-78493531D01*
X139037474Y-78567556D01*
X139035910Y-78619855D01*
X139033696Y-78650149D01*
X139030837Y-78658156D01*
X139027778Y-78654858D01*
X139009623Y-78633408D01*
X138979892Y-78596889D01*
X138940256Y-78547442D01*
X138892388Y-78487207D01*
X138837960Y-78418327D01*
X138778644Y-78342943D01*
X138716112Y-78263196D01*
X138652038Y-78181228D01*
X138588092Y-78099180D01*
X138525948Y-78019194D01*
X138467278Y-77943411D01*
X138413754Y-77873973D01*
X138367047Y-77813021D01*
X138328831Y-77762696D01*
X138300778Y-77725140D01*
X138284560Y-77702495D01*
X138239252Y-77630212D01*
X138199278Y-77550463D01*
X138177747Y-77482188D01*
X138174444Y-77424844D01*
X138179733Y-77376867D01*
X137047973Y-77377117D01*
X137087484Y-77407722D01*
X137096865Y-77415089D01*
X137159800Y-77469438D01*
X137228614Y-77537259D01*
X137305213Y-77620516D01*
X137391505Y-77721178D01*
X137408669Y-77741847D01*
X137449450Y-77791409D01*
X137499205Y-77852326D01*
X137556572Y-77922898D01*
X137620186Y-78001424D01*
X137688686Y-78086204D01*
X137760707Y-78175537D01*
X137834887Y-78267722D01*
X137850134Y-78286702D01*
X137909863Y-78361060D01*
X137984270Y-78453848D01*
X138056748Y-78544388D01*
X138125931Y-78630978D01*
X138190458Y-78711918D01*
X138248964Y-78785506D01*
X138300087Y-78850044D01*
X138342464Y-78903829D01*
X138374732Y-78945162D01*
X138395527Y-78972342D01*
X138403486Y-78983668D01*
X138401728Y-78987771D01*
X138388847Y-79008334D01*
X138364502Y-79044561D01*
X138329864Y-79094824D01*
X138286103Y-79157492D01*
X138234392Y-79230936D01*
X138175901Y-79313527D01*
X138111801Y-79403636D01*
X138043263Y-79499631D01*
X137971460Y-79599885D01*
X137897561Y-79702768D01*
X137822738Y-79806650D01*
X137748162Y-79909901D01*
X137675004Y-80010892D01*
X137604436Y-80107994D01*
X137537628Y-80199577D01*
X137475752Y-80284011D01*
X137419978Y-80359667D01*
X137371479Y-80424916D01*
X137331424Y-80478128D01*
X137300986Y-80517673D01*
X137280561Y-80543026D01*
X137234516Y-80597295D01*
X137184229Y-80653775D01*
X137137432Y-80703669D01*
X137046268Y-80797400D01*
X136348062Y-80797400D01*
X136416973Y-80797349D01*
X136515224Y-80797091D01*
X136604647Y-80796637D01*
X136682950Y-80796010D01*
X136747840Y-80795235D01*
X136797028Y-80794335D01*
X136828221Y-80793334D01*
X136839128Y-80792257D01*
X136837939Y-80789037D01*
X136827793Y-80771452D01*
X136810657Y-80745158D01*
X136802157Y-80732691D01*
X136792946Y-80718622D01*
X136784850Y-80704351D01*
X136777802Y-80688479D01*
X136771734Y-80669609D01*
X136766578Y-80646341D01*
X136762268Y-80617278D01*
X136758736Y-80581021D01*
X136755914Y-80536170D01*
X136753735Y-80481328D01*
X136752131Y-80415097D01*
X136751036Y-80336077D01*
X136750382Y-80242871D01*
X136750101Y-80134079D01*
X136750126Y-80008303D01*
X136750389Y-79864145D01*
X136750823Y-79700207D01*
X136751362Y-79515089D01*
X136751896Y-79336232D01*
X136752422Y-79177374D01*
X136752967Y-79038316D01*
X136753562Y-78917665D01*
X136754236Y-78814028D01*
X136755020Y-78726011D01*
X136755943Y-78652223D01*
X136757036Y-78591269D01*
X136758329Y-78541757D01*
X136759852Y-78502293D01*
X136761636Y-78471484D01*
X136763709Y-78447938D01*
X136766103Y-78430260D01*
X136768847Y-78417059D01*
X136771973Y-78406940D01*
X136775509Y-78398511D01*
X136779408Y-78390375D01*
X136799055Y-78353544D01*
X136817842Y-78323391D01*
X136818889Y-78321908D01*
X136833219Y-78299659D01*
X136839128Y-78286702D01*
X136838121Y-78286249D01*
X136820922Y-78284803D01*
X136784273Y-78283480D01*
X136730579Y-78282316D01*
X136662247Y-78281347D01*
X136581681Y-78280611D01*
X136491287Y-78280142D01*
X136393470Y-78279978D01*
X135947812Y-78279978D01*
X135944737Y-79456845D01*
X135941662Y-80633711D01*
X135915024Y-80692622D01*
X135903102Y-80717183D01*
X135885863Y-80747434D01*
X135872691Y-80764560D01*
X135864693Y-80772591D01*
X135856995Y-80787493D01*
X135565559Y-80787493D01*
X135565091Y-80695029D01*
X135564667Y-80579617D01*
X135564323Y-80449160D01*
X135564051Y-80302716D01*
X135563844Y-80139344D01*
X135563693Y-79958101D01*
X135563589Y-79758048D01*
X135563525Y-79538241D01*
X135563493Y-79297739D01*
X135563484Y-79035602D01*
X135563484Y-76844031D01*
X135601866Y-76805649D01*
X135628972Y-76781911D01*
X135655870Y-76770111D01*
X135692177Y-76767267D01*
X135744106Y-76767267D01*
X135744106Y-76855206D01*
X135746044Y-76905102D01*
X135764816Y-77015523D01*
X135801834Y-77116987D01*
X135854986Y-77208152D01*
X135922163Y-77287673D01*
X136001255Y-77354205D01*
X136090151Y-77406406D01*
X136186742Y-77442930D01*
X136288917Y-77462434D01*
X136394567Y-77463573D01*
X136501581Y-77445005D01*
X136607849Y-77405384D01*
X136704836Y-77347516D01*
X136789910Y-77272684D01*
X136858632Y-77184615D01*
X136909535Y-77085616D01*
X136941152Y-76977993D01*
X136952017Y-76864054D01*
X136952017Y-76767267D01*
X138572370Y-76767267D01*
X138783514Y-76767280D01*
X138987637Y-76767330D01*
X139171303Y-76767430D01*
X139335608Y-76767592D01*
X139481646Y-76767829D01*
X139610511Y-76768153D01*
X139723300Y-76768575D01*
X139821105Y-76769109D01*
X139905021Y-76769767D01*
X139976144Y-76770561D01*
X140035567Y-76771504D01*
X140084385Y-76772608D01*
X140123694Y-76773884D01*
X140154586Y-76775347D01*
X140178158Y-76777007D01*
X140195503Y-76778878D01*
X140207716Y-76780972D01*
X140215892Y-76783300D01*
X140221125Y-76785876D01*
X140227121Y-76789445D01*
X140233896Y-76792978D01*
X140240095Y-76796488D01*
X140245743Y-76800918D01*
X140250864Y-76807208D01*
X140255486Y-76816301D01*
X140259632Y-76829139D01*
X140263330Y-76846662D01*
X140266604Y-76869813D01*
X140269480Y-76899534D01*
X140271984Y-76936765D01*
X140274141Y-76982449D01*
X140275977Y-77037527D01*
X140277517Y-77102941D01*
X140278787Y-77179633D01*
X140279812Y-77268544D01*
X140280618Y-77370617D01*
X140280651Y-77376867D01*
X140281231Y-77486792D01*
G36*
X140281231Y-77486792D02*
G01*
X140281676Y-77618011D01*
X140281979Y-77765216D01*
X140282165Y-77929349D01*
X140282259Y-78111352D01*
X140282288Y-78312165D01*
X140282278Y-78532732D01*
X140282253Y-78773992D01*
X140282239Y-79036889D01*
X140282239Y-79079040D01*
X140282263Y-79339668D01*
X140282302Y-79578796D01*
X140282325Y-79797360D01*
X140282304Y-79996295D01*
X140282210Y-80176535D01*
X140282012Y-80339015D01*
X140281680Y-80484670D01*
X140281186Y-80614434D01*
X140280500Y-80729243D01*
X140279593Y-80830030D01*
X140278434Y-80917730D01*
X140276995Y-80993279D01*
X140275246Y-81057611D01*
X140273157Y-81111661D01*
X140270700Y-81156363D01*
X140267844Y-81192652D01*
X140264560Y-81221463D01*
X140260819Y-81243731D01*
X140256591Y-81260390D01*
X140251846Y-81272375D01*
X140246556Y-81280621D01*
X140240690Y-81286062D01*
X140234219Y-81289634D01*
X140227114Y-81292270D01*
X140219345Y-81294906D01*
X140210883Y-81298477D01*
X140206525Y-81300145D01*
X140198012Y-81302111D01*
X140185311Y-81303911D01*
X140167502Y-81305555D01*
X140143666Y-81307047D01*
X140112883Y-81308397D01*
X140074234Y-81309611D01*
X140026799Y-81310697D01*
X139969660Y-81311661D01*
X139901896Y-81312511D01*
X139822588Y-81313253D01*
X139730816Y-81313897D01*
X139625661Y-81314447D01*
X139506204Y-81314913D01*
X139371525Y-81315300D01*
X139220705Y-81315616D01*
X139052823Y-81315869D01*
X138866962Y-81316066D01*
X138662200Y-81316213D01*
X138437619Y-81316318D01*
X138192299Y-81316389D01*
X137925321Y-81316432D01*
X137886938Y-81316437D01*
X137621539Y-81316480D01*
X137377667Y-81316525D01*
X137154400Y-81316548D01*
X136950813Y-81316524D01*
X136765984Y-81316430D01*
X136598990Y-81316243D01*
X136448907Y-81315939D01*
X136314813Y-81315494D01*
X136195783Y-81314885D01*
X136090896Y-81314089D01*
X135999227Y-81313080D01*
X135919854Y-81311837D01*
X135851854Y-81310335D01*
X135794303Y-81308551D01*
X135746279Y-81306461D01*
X135706857Y-81304042D01*
X135675116Y-81301270D01*
X135650131Y-81298121D01*
X135630981Y-81294572D01*
X135616740Y-81290598D01*
X135606488Y-81286178D01*
X135599299Y-81281286D01*
X135594252Y-81275900D01*
X135590422Y-81269996D01*
X135586888Y-81263549D01*
X135582725Y-81256537D01*
X135581642Y-81254687D01*
X135579430Y-81249180D01*
X135577403Y-81240868D01*
X135575555Y-81228809D01*
X135573878Y-81212063D01*
X135572362Y-81189687D01*
X135571000Y-81160740D01*
X135569784Y-81124280D01*
X135568706Y-81079367D01*
X135567757Y-81025057D01*
X135566929Y-80960410D01*
X135566214Y-80884484D01*
X135565604Y-80796338D01*
X135565559Y-80787493D01*
X135856995Y-80787493D01*
X135860877Y-80788765D01*
X135884137Y-80790791D01*
X135926491Y-80792626D01*
X135985749Y-80794227D01*
X136059724Y-80795549D01*
X136146227Y-80796548D01*
X136243069Y-80797180D01*
X136348062Y-80797400D01*
X137046268Y-80797400D01*
X138200707Y-80797400D01*
X138200073Y-80721200D01*
X138201191Y-80679160D01*
X138206921Y-80643334D01*
X138219507Y-80605772D01*
X138241185Y-80557577D01*
X138244406Y-80550897D01*
X138269805Y-80501359D01*
X138296613Y-80453369D01*
X138319534Y-80416466D01*
X138324102Y-80409834D01*
X138346133Y-80378593D01*
X138378310Y-80333654D01*
X138419074Y-80277147D01*
X138466862Y-80211204D01*
X138520115Y-80137957D01*
X138577272Y-80059536D01*
X138636772Y-79978072D01*
X138697054Y-79895698D01*
X138756557Y-79814544D01*
X138813722Y-79736742D01*
X138866987Y-79664423D01*
X138914791Y-79599718D01*
X138955574Y-79544759D01*
X138987775Y-79501676D01*
X139009833Y-79472602D01*
X139020188Y-79459667D01*
X139024661Y-79455351D01*
X139028853Y-79453312D01*
X139032260Y-79455926D01*
X139034942Y-79464986D01*
X139036958Y-79482285D01*
X139038365Y-79509614D01*
X139039222Y-79548765D01*
X139039587Y-79601533D01*
X139039520Y-79669707D01*
X139039077Y-79755082D01*
X139038319Y-79859449D01*
X139037302Y-79984600D01*
X139036925Y-80029300D01*
X139035786Y-80150395D01*
X139034589Y-80251688D01*
X139033253Y-80335262D01*
X139031694Y-80403204D01*
X139029832Y-80457599D01*
X139027583Y-80500532D01*
X139024865Y-80534089D01*
X139021596Y-80560355D01*
X139017695Y-80581416D01*
X139013078Y-80599357D01*
X139004809Y-80625770D01*
X138981200Y-80687772D01*
X138955302Y-80740573D01*
X138930152Y-80777645D01*
X138928956Y-80779075D01*
X138926785Y-80783424D01*
X138928945Y-80787026D01*
X138937261Y-80789951D01*
X138953557Y-80792269D01*
X138979658Y-80794051D01*
X139017388Y-80795367D01*
X139068573Y-80796286D01*
X139135037Y-80796878D01*
X139218604Y-80797215D01*
X139321100Y-80797365D01*
X139444349Y-80797400D01*
X139975913Y-80797400D01*
X139937140Y-80739783D01*
X139931049Y-80730893D01*
X139920593Y-80716069D01*
X139911196Y-80702422D01*
X139902800Y-80688765D01*
X139895350Y-80673911D01*
X139888790Y-80656670D01*
X139883063Y-80635855D01*
X139878112Y-80610280D01*
X139873883Y-80578755D01*
X139870318Y-80540093D01*
X139867361Y-80493107D01*
X139864957Y-80436608D01*
X139863048Y-80369409D01*
X139861579Y-80290322D01*
X139860493Y-80198160D01*
X139859735Y-80091734D01*
X139859247Y-79969857D01*
X139858975Y-79831341D01*
X139858860Y-79674999D01*
X139858848Y-79499642D01*
X139858882Y-79304082D01*
X139858906Y-79087133D01*
X139858897Y-78964513D01*
X139858860Y-78759447D01*
X139858844Y-78575116D01*
X139858905Y-78410334D01*
X139859101Y-78263916D01*
X139859487Y-78134674D01*
X139860122Y-78021422D01*
X139861061Y-77922975D01*
X139862362Y-77838144D01*
X139864081Y-77765744D01*
X139866276Y-77704589D01*
X139869002Y-77653492D01*
X139872318Y-77611267D01*
X139876279Y-77576727D01*
X139880942Y-77548686D01*
X139886364Y-77525958D01*
X139892603Y-77507356D01*
X139899714Y-77491693D01*
X139907755Y-77477784D01*
X139916783Y-77464441D01*
X139926853Y-77450479D01*
X139938024Y-77434711D01*
X139977814Y-77376867D01*
X138917931Y-77376867D01*
X138955928Y-77439966D01*
X138970610Y-77465005D01*
X138985148Y-77492586D01*
X138997244Y-77520700D01*
X139007149Y-77551551D01*
X139015111Y-77587344D01*
X139021378Y-77630283D01*
X139026199Y-77682574D01*
X139029823Y-77746419D01*
X139032498Y-77824025D01*
X139034474Y-77917594D01*
X139035999Y-78029333D01*
X139037321Y-78161445D01*
X139038230Y-78281434D01*
X139038637Y-78398063D01*
X139038384Y-78493531D01*
X139037474Y-78567556D01*
X139035910Y-78619855D01*
X139033696Y-78650149D01*
X139030837Y-78658156D01*
X139027778Y-78654858D01*
X139009623Y-78633408D01*
X138979892Y-78596889D01*
X138940256Y-78547442D01*
X138892388Y-78487207D01*
X138837960Y-78418327D01*
X138778644Y-78342943D01*
X138716112Y-78263196D01*
X138652038Y-78181228D01*
X138588092Y-78099180D01*
X138525948Y-78019194D01*
X138467278Y-77943411D01*
X138413754Y-77873973D01*
X138367047Y-77813021D01*
X138328831Y-77762696D01*
X138300778Y-77725140D01*
X138284560Y-77702495D01*
X138239252Y-77630212D01*
X138199278Y-77550463D01*
X138177747Y-77482188D01*
X138174444Y-77424844D01*
X138179733Y-77376867D01*
X137047973Y-77377117D01*
X137087484Y-77407722D01*
X137096865Y-77415089D01*
X137159800Y-77469438D01*
X137228614Y-77537259D01*
X137305213Y-77620516D01*
X137391505Y-77721178D01*
X137408669Y-77741847D01*
X137449450Y-77791409D01*
X137499205Y-77852326D01*
X137556572Y-77922898D01*
X137620186Y-78001424D01*
X137688686Y-78086204D01*
X137760707Y-78175537D01*
X137834887Y-78267722D01*
X137850134Y-78286702D01*
X137909863Y-78361060D01*
X137984270Y-78453848D01*
X138056748Y-78544388D01*
X138125931Y-78630978D01*
X138190458Y-78711918D01*
X138248964Y-78785506D01*
X138300087Y-78850044D01*
X138342464Y-78903829D01*
X138374732Y-78945162D01*
X138395527Y-78972342D01*
X138403486Y-78983668D01*
X138401728Y-78987771D01*
X138388847Y-79008334D01*
X138364502Y-79044561D01*
X138329864Y-79094824D01*
X138286103Y-79157492D01*
X138234392Y-79230936D01*
X138175901Y-79313527D01*
X138111801Y-79403636D01*
X138043263Y-79499631D01*
X137971460Y-79599885D01*
X137897561Y-79702768D01*
X137822738Y-79806650D01*
X137748162Y-79909901D01*
X137675004Y-80010892D01*
X137604436Y-80107994D01*
X137537628Y-80199577D01*
X137475752Y-80284011D01*
X137419978Y-80359667D01*
X137371479Y-80424916D01*
X137331424Y-80478128D01*
X137300986Y-80517673D01*
X137280561Y-80543026D01*
X137234516Y-80597295D01*
X137184229Y-80653775D01*
X137137432Y-80703669D01*
X137046268Y-80797400D01*
X136348062Y-80797400D01*
X136416973Y-80797349D01*
X136515224Y-80797091D01*
X136604647Y-80796637D01*
X136682950Y-80796010D01*
X136747840Y-80795235D01*
X136797028Y-80794335D01*
X136828221Y-80793334D01*
X136839128Y-80792257D01*
X136837939Y-80789037D01*
X136827793Y-80771452D01*
X136810657Y-80745158D01*
X136802157Y-80732691D01*
X136792946Y-80718622D01*
X136784850Y-80704351D01*
X136777802Y-80688479D01*
X136771734Y-80669609D01*
X136766578Y-80646341D01*
X136762268Y-80617278D01*
X136758736Y-80581021D01*
X136755914Y-80536170D01*
X136753735Y-80481328D01*
X136752131Y-80415097D01*
X136751036Y-80336077D01*
X136750382Y-80242871D01*
X136750101Y-80134079D01*
X136750126Y-80008303D01*
X136750389Y-79864145D01*
X136750823Y-79700207D01*
X136751362Y-79515089D01*
X136751896Y-79336232D01*
X136752422Y-79177374D01*
X136752967Y-79038316D01*
X136753562Y-78917665D01*
X136754236Y-78814028D01*
X136755020Y-78726011D01*
X136755943Y-78652223D01*
X136757036Y-78591269D01*
X136758329Y-78541757D01*
X136759852Y-78502293D01*
X136761636Y-78471484D01*
X136763709Y-78447938D01*
X136766103Y-78430260D01*
X136768847Y-78417059D01*
X136771973Y-78406940D01*
X136775509Y-78398511D01*
X136779408Y-78390375D01*
X136799055Y-78353544D01*
X136817842Y-78323391D01*
X136818889Y-78321908D01*
X136833219Y-78299659D01*
X136839128Y-78286702D01*
X136838121Y-78286249D01*
X136820922Y-78284803D01*
X136784273Y-78283480D01*
X136730579Y-78282316D01*
X136662247Y-78281347D01*
X136581681Y-78280611D01*
X136491287Y-78280142D01*
X136393470Y-78279978D01*
X135947812Y-78279978D01*
X135944737Y-79456845D01*
X135941662Y-80633711D01*
X135915024Y-80692622D01*
X135903102Y-80717183D01*
X135885863Y-80747434D01*
X135872691Y-80764560D01*
X135864693Y-80772591D01*
X135856995Y-80787493D01*
X135565559Y-80787493D01*
X135565091Y-80695029D01*
X135564667Y-80579617D01*
X135564323Y-80449160D01*
X135564051Y-80302716D01*
X135563844Y-80139344D01*
X135563693Y-79958101D01*
X135563589Y-79758048D01*
X135563525Y-79538241D01*
X135563493Y-79297739D01*
X135563484Y-79035602D01*
X135563484Y-76844031D01*
X135601866Y-76805649D01*
X135628972Y-76781911D01*
X135655870Y-76770111D01*
X135692177Y-76767267D01*
X135744106Y-76767267D01*
X135744106Y-76855206D01*
X135746044Y-76905102D01*
X135764816Y-77015523D01*
X135801834Y-77116987D01*
X135854986Y-77208152D01*
X135922163Y-77287673D01*
X136001255Y-77354205D01*
X136090151Y-77406406D01*
X136186742Y-77442930D01*
X136288917Y-77462434D01*
X136394567Y-77463573D01*
X136501581Y-77445005D01*
X136607849Y-77405384D01*
X136704836Y-77347516D01*
X136789910Y-77272684D01*
X136858632Y-77184615D01*
X136909535Y-77085616D01*
X136941152Y-76977993D01*
X136952017Y-76864054D01*
X136952017Y-76767267D01*
X138572370Y-76767267D01*
X138783514Y-76767280D01*
X138987637Y-76767330D01*
X139171303Y-76767430D01*
X139335608Y-76767592D01*
X139481646Y-76767829D01*
X139610511Y-76768153D01*
X139723300Y-76768575D01*
X139821105Y-76769109D01*
X139905021Y-76769767D01*
X139976144Y-76770561D01*
X140035567Y-76771504D01*
X140084385Y-76772608D01*
X140123694Y-76773884D01*
X140154586Y-76775347D01*
X140178158Y-76777007D01*
X140195503Y-76778878D01*
X140207716Y-76780972D01*
X140215892Y-76783300D01*
X140221125Y-76785876D01*
X140227121Y-76789445D01*
X140233896Y-76792978D01*
X140240095Y-76796488D01*
X140245743Y-76800918D01*
X140250864Y-76807208D01*
X140255486Y-76816301D01*
X140259632Y-76829139D01*
X140263330Y-76846662D01*
X140266604Y-76869813D01*
X140269480Y-76899534D01*
X140271984Y-76936765D01*
X140274141Y-76982449D01*
X140275977Y-77037527D01*
X140277517Y-77102941D01*
X140278787Y-77179633D01*
X140279812Y-77268544D01*
X140280618Y-77370617D01*
X140280651Y-77376867D01*
X140281231Y-77486792D01*
G37*
%TD*%
M02*
